ISO-10303-21;
HEADER;
/* Generated by software containing ST-Developer
 * from STEP Tools, Inc. (www.steptools.com) 
 */

FILE_DESCRIPTION(
/* description */ (''),
/* implementation_level */ '2;1');

FILE_NAME(
/* name */ 'card-holder.step',
/* time_stamp */ '2026-09-30T18:02:18-07:00',
/* author */ (''),
/* organization */ (''),
/* preprocessor_version */ 'ST-DEVELOPER v20.1',
/* originating_system */ 'Autodesk Translation Framework v15.8.0.0',
/* authorisation */ '');

FILE_SCHEMA (('AUTOMOTIVE_DESIGN { 1 0 10303 214 3 1 1 }'));
ENDSEC;

DATA;
#10=MECHANICAL_DESIGN_GEOMETRIC_PRESENTATION_REPRESENTATION('',(#13,#14,
#15),#1537);
#11=SHAPE_REPRESENTATION_RELATIONSHIP('SRR','None',#1544,#12);
#12=ADVANCED_BREP_SHAPE_REPRESENTATION('',(#16,#17,#18),#1536);
#13=STYLED_ITEM('',(#1553),#16);
#14=STYLED_ITEM('',(#1553),#17);
#15=STYLED_ITEM('',(#1553),#18);
#16=MANIFOLD_SOLID_BREP('BRK_bottom',#901);
#17=MANIFOLD_SOLID_BREP('BRK_cart_l',#902);
#18=MANIFOLD_SOLID_BREP('BRK_cart_r',#903);
#19=FACE_BOUND('',#101,.T.);
#20=FACE_BOUND('',#104,.T.);
#21=FACE_BOUND('',#108,.T.);
#22=FACE_BOUND('',#114,.T.);
#23=FACE_BOUND('',#117,.T.);
#24=FACE_BOUND('',#119,.T.);
#25=FACE_BOUND('',#125,.T.);
#26=FACE_BOUND('',#136,.T.);
#27=FACE_BOUND('',#143,.T.);
#28=FACE_BOUND('',#150,.T.);
#29=FACE_BOUND('',#156,.T.);
#30=CYLINDRICAL_SURFACE('',#919,8.);
#31=CYLINDRICAL_SURFACE('',#922,2.125);
#32=CYLINDRICAL_SURFACE('',#927,2.125);
#33=CYLINDRICAL_SURFACE('',#932,1.7);
#34=CYLINDRICAL_SURFACE('',#934,1.7);
#35=CYLINDRICAL_SURFACE('',#956,2.125);
#36=CYLINDRICAL_SURFACE('',#960,2.125);
#37=CYLINDRICAL_SURFACE('',#970,4.);
#38=CYLINDRICAL_SURFACE('',#984,4.);
#39=CYLINDRICAL_SURFACE('',#992,3.);
#40=CYLINDRICAL_SURFACE('',#997,7.);
#41=CYLINDRICAL_SURFACE('',#1001,3.);
#42=CYLINDRICAL_SURFACE('',#1006,7.);
#43=FACE_OUTER_BOUND('',#96,.T.);
#44=FACE_OUTER_BOUND('',#97,.T.);
#45=FACE_OUTER_BOUND('',#98,.T.);
#46=FACE_OUTER_BOUND('',#99,.T.);
#47=FACE_OUTER_BOUND('',#100,.T.);
#48=FACE_OUTER_BOUND('',#102,.T.);
#49=FACE_OUTER_BOUND('',#103,.T.);
#50=FACE_OUTER_BOUND('',#105,.T.);
#51=FACE_OUTER_BOUND('',#106,.T.);
#52=FACE_OUTER_BOUND('',#107,.T.);
#53=FACE_OUTER_BOUND('',#109,.T.);
#54=FACE_OUTER_BOUND('',#110,.T.);
#55=FACE_OUTER_BOUND('',#111,.T.);
#56=FACE_OUTER_BOUND('',#112,.T.);
#57=FACE_OUTER_BOUND('',#113,.T.);
#58=FACE_OUTER_BOUND('',#115,.T.);
#59=FACE_OUTER_BOUND('',#116,.T.);
#60=FACE_OUTER_BOUND('',#118,.T.);
#61=FACE_OUTER_BOUND('',#120,.T.);
#62=FACE_OUTER_BOUND('',#121,.T.);
#63=FACE_OUTER_BOUND('',#122,.T.);
#64=FACE_OUTER_BOUND('',#123,.T.);
#65=FACE_OUTER_BOUND('',#124,.T.);
#66=FACE_OUTER_BOUND('',#126,.T.);
#67=FACE_OUTER_BOUND('',#127,.T.);
#68=FACE_OUTER_BOUND('',#128,.T.);
#69=FACE_OUTER_BOUND('',#129,.T.);
#70=FACE_OUTER_BOUND('',#130,.T.);
#71=FACE_OUTER_BOUND('',#131,.T.);
#72=FACE_OUTER_BOUND('',#132,.T.);
#73=FACE_OUTER_BOUND('',#133,.T.);
#74=FACE_OUTER_BOUND('',#134,.T.);
#75=FACE_OUTER_BOUND('',#135,.T.);
#76=FACE_OUTER_BOUND('',#137,.T.);
#77=FACE_OUTER_BOUND('',#138,.T.);
#78=FACE_OUTER_BOUND('',#139,.T.);
#79=FACE_OUTER_BOUND('',#140,.T.);
#80=FACE_OUTER_BOUND('',#141,.T.);
#81=FACE_OUTER_BOUND('',#142,.T.);
#82=FACE_OUTER_BOUND('',#144,.T.);
#83=FACE_OUTER_BOUND('',#145,.T.);
#84=FACE_OUTER_BOUND('',#146,.T.);
#85=FACE_OUTER_BOUND('',#147,.T.);
#86=FACE_OUTER_BOUND('',#148,.T.);
#87=FACE_OUTER_BOUND('',#149,.T.);
#88=FACE_OUTER_BOUND('',#151,.T.);
#89=FACE_OUTER_BOUND('',#152,.T.);
#90=FACE_OUTER_BOUND('',#153,.T.);
#91=FACE_OUTER_BOUND('',#154,.T.);
#92=FACE_OUTER_BOUND('',#155,.T.);
#93=FACE_OUTER_BOUND('',#157,.T.);
#94=FACE_OUTER_BOUND('',#158,.T.);
#95=FACE_OUTER_BOUND('',#159,.T.);
#96=EDGE_LOOP('',(#564,#565));
#97=EDGE_LOOP('',(#566,#567,#568,#569));
#98=EDGE_LOOP('',(#570,#571));
#99=EDGE_LOOP('',(#572,#573,#574,#575));
#100=EDGE_LOOP('',(#576));
#101=EDGE_LOOP('',(#577));
#102=EDGE_LOOP('',(#578,#579,#580,#581));
#103=EDGE_LOOP('',(#582));
#104=EDGE_LOOP('',(#583));
#105=EDGE_LOOP('',(#584,#585,#586,#587));
#106=EDGE_LOOP('',(#588,#589,#590,#591));
#107=EDGE_LOOP('',(#592,#593,#594,#595));
#108=EDGE_LOOP('',(#596));
#109=EDGE_LOOP('',(#597,#598,#599,#600));
#110=EDGE_LOOP('',(#601,#602,#603,#604,#605,#606));
#111=EDGE_LOOP('',(#607,#608,#609,#610,#611,#612,#613,#614,#615,#616,#617,
#618,#619,#620,#621,#622,#623,#624,#625,#626));
#112=EDGE_LOOP('',(#627,#628,#629,#630));
#113=EDGE_LOOP('',(#631,#632,#633,#634));
#114=EDGE_LOOP('',(#635));
#115=EDGE_LOOP('',(#636,#637,#638,#639));
#116=EDGE_LOOP('',(#640,#641,#642,#643));
#117=EDGE_LOOP('',(#644,#645,#646,#647));
#118=EDGE_LOOP('',(#648,#649,#650,#651));
#119=EDGE_LOOP('',(#652));
#120=EDGE_LOOP('',(#653,#654,#655));
#121=EDGE_LOOP('',(#656,#657,#658,#659));
#122=EDGE_LOOP('',(#660,#661,#662,#663));
#123=EDGE_LOOP('',(#664,#665,#666,#667));
#124=EDGE_LOOP('',(#668,#669,#670,#671));
#125=EDGE_LOOP('',(#672));
#126=EDGE_LOOP('',(#673,#674,#675,#676,#677,#678));
#127=EDGE_LOOP('',(#679,#680,#681,#682,#683,#684,#685,#686));
#128=EDGE_LOOP('',(#687,#688,#689,#690,#691,#692,#693,#694,#695,#696));
#129=EDGE_LOOP('',(#697,#698,#699,#700,#701));
#130=EDGE_LOOP('',(#702,#703,#704,#705));
#131=EDGE_LOOP('',(#706,#707,#708,#709,#710));
#132=EDGE_LOOP('',(#711,#712,#713,#714));
#133=EDGE_LOOP('',(#715,#716));
#134=EDGE_LOOP('',(#717,#718,#719,#720,#721,#722,#723,#724));
#135=EDGE_LOOP('',(#725));
#136=EDGE_LOOP('',(#726));
#137=EDGE_LOOP('',(#727,#728,#729,#730,#731,#732,#733));
#138=EDGE_LOOP('',(#734,#735,#736));
#139=EDGE_LOOP('',(#737,#738));
#140=EDGE_LOOP('',(#739,#740,#741,#742,#743,#744));
#141=EDGE_LOOP('',(#745,#746,#747,#748,#749,#750,#751,#752));
#142=EDGE_LOOP('',(#753));
#143=EDGE_LOOP('',(#754));
#144=EDGE_LOOP('',(#755,#756,#757));
#145=EDGE_LOOP('',(#758,#759,#760,#761,#762,#763,#764,#765,#766,#767,#768,
#769,#770,#771,#772,#773));
#146=EDGE_LOOP('',(#774,#775,#776,#777,#778));
#147=EDGE_LOOP('',(#779,#780,#781,#782,#783));
#148=EDGE_LOOP('',(#784,#785,#786,#787));
#149=EDGE_LOOP('',(#788));
#150=EDGE_LOOP('',(#789));
#151=EDGE_LOOP('',(#790,#791,#792,#793));
#152=EDGE_LOOP('',(#794));
#153=EDGE_LOOP('',(#795));
#154=EDGE_LOOP('',(#796,#797,#798,#799));
#155=EDGE_LOOP('',(#800));
#156=EDGE_LOOP('',(#801));
#157=EDGE_LOOP('',(#802,#803,#804,#805));
#158=EDGE_LOOP('',(#806));
#159=EDGE_LOOP('',(#807));
#160=CIRCLE('',#918,8.);
#161=CIRCLE('',#920,8.);
#162=CIRCLE('',#923,2.125);
#163=CIRCLE('',#924,2.125);
#164=CIRCLE('',#926,1.7);
#165=CIRCLE('',#928,2.125);
#166=CIRCLE('',#929,2.125);
#167=CIRCLE('',#931,1.7);
#168=CIRCLE('',#933,1.7);
#169=CIRCLE('',#935,1.7);
#170=CIRCLE('',#946,2.125);
#171=CIRCLE('',#947,2.125);
#172=CIRCLE('',#949,2.125);
#173=CIRCLE('',#951,2.125);
#174=CIRCLE('',#955,2.125);
#175=CIRCLE('',#957,2.125);
#176=CIRCLE('',#958,2.125);
#177=CIRCLE('',#959,2.125);
#178=CIRCLE('',#961,2.125);
#179=CIRCLE('',#962,2.125);
#180=CIRCLE('',#967,4.);
#181=CIRCLE('',#969,4.);
#182=CIRCLE('',#971,4.);
#183=CIRCLE('',#972,4.);
#184=CIRCLE('',#973,4.);
#185=CIRCLE('',#974,4.);
#186=CIRCLE('',#977,4.);
#187=CIRCLE('',#980,4.);
#188=CIRCLE('',#982,4.);
#189=CIRCLE('',#983,4.);
#190=CIRCLE('',#985,4.);
#191=CIRCLE('',#986,4.);
#192=CIRCLE('',#993,3.);
#193=CIRCLE('',#994,3.);
#194=CIRCLE('',#996,7.);
#195=CIRCLE('',#998,7.);
#196=CIRCLE('',#1002,3.);
#197=CIRCLE('',#1003,3.);
#198=CIRCLE('',#1005,7.);
#199=CIRCLE('',#1007,7.);
#200=LINE('',#1284,#282);
#201=LINE('',#1288,#283);
#202=LINE('',#1291,#284);
#203=LINE('',#1293,#285);
#204=LINE('',#1298,#286);
#205=LINE('',#1307,#287);
#206=LINE('',#1315,#288);
#207=LINE('',#1319,#289);
#208=LINE('',#1323,#290);
#209=LINE('',#1325,#291);
#210=LINE('',#1327,#292);
#211=LINE('',#1328,#293);
#212=LINE('',#1331,#294);
#213=LINE('',#1333,#295);
#214=LINE('',#1334,#296);
#215=LINE('',#1338,#297);
#216=LINE('',#1340,#298);
#217=LINE('',#1342,#299);
#218=LINE('',#1344,#300);
#219=LINE('',#1346,#301);
#220=LINE('',#1347,#302);
#221=LINE('',#1350,#303);
#222=LINE('',#1352,#304);
#223=LINE('',#1354,#305);
#224=LINE('',#1356,#306);
#225=LINE('',#1358,#307);
#226=LINE('',#1360,#308);
#227=LINE('',#1362,#309);
#228=LINE('',#1364,#310);
#229=LINE('',#1366,#311);
#230=LINE('',#1368,#312);
#231=LINE('',#1370,#313);
#232=LINE('',#1372,#314);
#233=LINE('',#1374,#315);
#234=LINE('',#1376,#316);
#235=LINE('',#1378,#317);
#236=LINE('',#1379,#318);
#237=LINE('',#1380,#319);
#238=LINE('',#1383,#320);
#239=LINE('',#1385,#321);
#240=LINE('',#1386,#322);
#241=LINE('',#1389,#323);
#242=LINE('',#1390,#324);
#243=LINE('',#1393,#325);
#244=LINE('',#1394,#326);
#245=LINE('',#1397,#327);
#246=LINE('',#1398,#328);
#247=LINE('',#1400,#329);
#248=LINE('',#1409,#330);
#249=LINE('',#1410,#331);
#250=LINE('',#1413,#332);
#251=LINE('',#1418,#333);
#252=LINE('',#1419,#334);
#253=LINE('',#1420,#335);
#254=LINE('',#1422,#336);
#255=LINE('',#1425,#337);
#256=LINE('',#1427,#338);
#257=LINE('',#1430,#339);
#258=LINE('',#1435,#340);
#259=LINE('',#1438,#341);
#260=LINE('',#1440,#342);
#261=LINE('',#1445,#343);
#262=LINE('',#1447,#344);
#263=LINE('',#1450,#345);
#264=LINE('',#1453,#346);
#265=LINE('',#1454,#347);
#266=LINE('',#1456,#348);
#267=LINE('',#1459,#349);
#268=LINE('',#1461,#350);
#269=LINE('',#1462,#351);
#270=LINE('',#1465,#352);
#271=LINE('',#1475,#353);
#272=LINE('',#1482,#354);
#273=LINE('',#1483,#355);
#274=LINE('',#1485,#356);
#275=LINE('',#1489,#357);
#276=LINE('',#1496,#358);
#277=LINE('',#1501,#359);
#278=LINE('',#1508,#360);
#279=LINE('',#1516,#361);
#280=LINE('',#1523,#362);
#281=LINE('',#1531,#363);
#282=VECTOR('',#1014,10.);
#283=VECTOR('',#1019,10.);
#284=VECTOR('',#1022,10.);
#285=VECTOR('',#1025,10.);
#286=VECTOR('',#1030,2.125);
#287=VECTOR('',#1041,2.125);
#288=VECTOR('',#1052,1.7);
#289=VECTOR('',#1057,1.7);
#290=VECTOR('',#1060,10.);
#291=VECTOR('',#1061,10.);
#292=VECTOR('',#1062,10.);
#293=VECTOR('',#1063,10.);
#294=VECTOR('',#1066,10.);
#295=VECTOR('',#1067,10.);
#296=VECTOR('',#1068,10.);
#297=VECTOR('',#1071,10.);
#298=VECTOR('',#1072,10.);
#299=VECTOR('',#1073,10.);
#300=VECTOR('',#1074,10.);
#301=VECTOR('',#1075,10.);
#302=VECTOR('',#1076,10.);
#303=VECTOR('',#1079,10.);
#304=VECTOR('',#1080,10.);
#305=VECTOR('',#1081,10.);
#306=VECTOR('',#1082,10.);
#307=VECTOR('',#1083,10.);
#308=VECTOR('',#1084,10.);
#309=VECTOR('',#1085,10.);
#310=VECTOR('',#1086,10.);
#311=VECTOR('',#1087,10.);
#312=VECTOR('',#1088,10.);
#313=VECTOR('',#1089,10.);
#314=VECTOR('',#1090,10.);
#315=VECTOR('',#1091,10.);
#316=VECTOR('',#1092,10.);
#317=VECTOR('',#1093,10.);
#318=VECTOR('',#1094,10.);
#319=VECTOR('',#1095,10.);
#320=VECTOR('',#1098,10.);
#321=VECTOR('',#1099,10.);
#322=VECTOR('',#1100,10.);
#323=VECTOR('',#1103,10.);
#324=VECTOR('',#1104,10.);
#325=VECTOR('',#1107,10.);
#326=VECTOR('',#1108,10.);
#327=VECTOR('',#1111,10.);
#328=VECTOR('',#1112,10.);
#329=VECTOR('',#1115,10.);
#330=VECTOR('',#1126,10.);
#331=VECTOR('',#1127,10.);
#332=VECTOR('',#1130,10.);
#333=VECTOR('',#1135,10.);
#334=VECTOR('',#1136,10.);
#335=VECTOR('',#1137,10.);
#336=VECTOR('',#1140,10.);
#337=VECTOR('',#1143,10.);
#338=VECTOR('',#1144,10.);
#339=VECTOR('',#1147,10.);
#340=VECTOR('',#1152,2.125);
#341=VECTOR('',#1155,10.);
#342=VECTOR('',#1156,10.);
#343=VECTOR('',#1163,2.125);
#344=VECTOR('',#1164,10.);
#345=VECTOR('',#1167,10.);
#346=VECTOR('',#1170,10.);
#347=VECTOR('',#1171,10.);
#348=VECTOR('',#1174,10.);
#349=VECTOR('',#1177,10.);
#350=VECTOR('',#1178,10.);
#351=VECTOR('',#1179,10.);
#352=VECTOR('',#1182,10.);
#353=VECTOR('',#1197,4.);
#354=VECTOR('',#1206,10.);
#355=VECTOR('',#1207,10.);
#356=VECTOR('',#1210,10.);
#357=VECTOR('',#1217,10.);
#358=VECTOR('',#1226,4.);
#359=VECTOR('',#1235,10.);
#360=VECTOR('',#1244,3.);
#361=VECTOR('',#1255,7.);
#362=VECTOR('',#1264,3.);
#363=VECTOR('',#1275,7.);
#364=VERTEX_POINT('',#1282);
#365=VERTEX_POINT('',#1283);
#366=VERTEX_POINT('',#1287);
#367=VERTEX_POINT('',#1289);
#368=VERTEX_POINT('',#1295);
#369=VERTEX_POINT('',#1297);
#370=VERTEX_POINT('',#1301);
#371=VERTEX_POINT('',#1304);
#372=VERTEX_POINT('',#1306);
#373=VERTEX_POINT('',#1310);
#374=VERTEX_POINT('',#1313);
#375=VERTEX_POINT('',#1317);
#376=VERTEX_POINT('',#1321);
#377=VERTEX_POINT('',#1322);
#378=VERTEX_POINT('',#1324);
#379=VERTEX_POINT('',#1326);
#380=VERTEX_POINT('',#1330);
#381=VERTEX_POINT('',#1332);
#382=VERTEX_POINT('',#1336);
#383=VERTEX_POINT('',#1337);
#384=VERTEX_POINT('',#1339);
#385=VERTEX_POINT('',#1341);
#386=VERTEX_POINT('',#1343);
#387=VERTEX_POINT('',#1345);
#388=VERTEX_POINT('',#1349);
#389=VERTEX_POINT('',#1351);
#390=VERTEX_POINT('',#1353);
#391=VERTEX_POINT('',#1355);
#392=VERTEX_POINT('',#1357);
#393=VERTEX_POINT('',#1359);
#394=VERTEX_POINT('',#1361);
#395=VERTEX_POINT('',#1363);
#396=VERTEX_POINT('',#1365);
#397=VERTEX_POINT('',#1367);
#398=VERTEX_POINT('',#1369);
#399=VERTEX_POINT('',#1371);
#400=VERTEX_POINT('',#1373);
#401=VERTEX_POINT('',#1375);
#402=VERTEX_POINT('',#1377);
#403=VERTEX_POINT('',#1382);
#404=VERTEX_POINT('',#1384);
#405=VERTEX_POINT('',#1388);
#406=VERTEX_POINT('',#1392);
#407=VERTEX_POINT('',#1396);
#408=VERTEX_POINT('',#1402);
#409=VERTEX_POINT('',#1406);
#410=VERTEX_POINT('',#1408);
#411=VERTEX_POINT('',#1412);
#412=VERTEX_POINT('',#1416);
#413=VERTEX_POINT('',#1417);
#414=VERTEX_POINT('',#1424);
#415=VERTEX_POINT('',#1426);
#416=VERTEX_POINT('',#1428);
#417=VERTEX_POINT('',#1432);
#418=VERTEX_POINT('',#1434);
#419=VERTEX_POINT('',#1436);
#420=VERTEX_POINT('',#1439);
#421=VERTEX_POINT('',#1443);
#422=VERTEX_POINT('',#1446);
#423=VERTEX_POINT('',#1448);
#424=VERTEX_POINT('',#1452);
#425=VERTEX_POINT('',#1458);
#426=VERTEX_POINT('',#1460);
#427=VERTEX_POINT('',#1464);
#428=VERTEX_POINT('',#1470);
#429=VERTEX_POINT('',#1474);
#430=VERTEX_POINT('',#1479);
#431=VERTEX_POINT('',#1481);
#432=VERTEX_POINT('',#1490);
#433=VERTEX_POINT('',#1495);
#434=VERTEX_POINT('',#1505);
#435=VERTEX_POINT('',#1507);
#436=VERTEX_POINT('',#1511);
#437=VERTEX_POINT('',#1514);
#438=VERTEX_POINT('',#1520);
#439=VERTEX_POINT('',#1522);
#440=VERTEX_POINT('',#1526);
#441=VERTEX_POINT('',#1529);
#442=EDGE_CURVE('',#364,#365,#200,.T.);
#443=EDGE_CURVE('',#365,#364,#160,.T.);
#444=EDGE_CURVE('',#366,#364,#201,.T.);
#445=EDGE_CURVE('',#367,#366,#161,.T.);
#446=EDGE_CURVE('',#365,#367,#202,.T.);
#447=EDGE_CURVE('',#367,#366,#203,.T.);
#448=EDGE_CURVE('',#368,#368,#162,.T.);
#449=EDGE_CURVE('',#368,#369,#204,.T.);
#450=EDGE_CURVE('',#369,#369,#163,.T.);
#451=EDGE_CURVE('',#370,#370,#164,.T.);
#452=EDGE_CURVE('',#371,#371,#165,.T.);
#453=EDGE_CURVE('',#371,#372,#205,.T.);
#454=EDGE_CURVE('',#372,#372,#166,.T.);
#455=EDGE_CURVE('',#373,#373,#167,.T.);
#456=EDGE_CURVE('',#374,#374,#168,.T.);
#457=EDGE_CURVE('',#374,#370,#206,.T.);
#458=EDGE_CURVE('',#375,#375,#169,.T.);
#459=EDGE_CURVE('',#375,#373,#207,.T.);
#460=EDGE_CURVE('',#376,#377,#208,.T.);
#461=EDGE_CURVE('',#378,#376,#209,.T.);
#462=EDGE_CURVE('',#379,#378,#210,.T.);
#463=EDGE_CURVE('',#377,#379,#211,.T.);
#464=EDGE_CURVE('',#378,#380,#212,.T.);
#465=EDGE_CURVE('',#381,#380,#213,.T.);
#466=EDGE_CURVE('',#379,#381,#214,.T.);
#467=EDGE_CURVE('',#382,#383,#215,.T.);
#468=EDGE_CURVE('',#384,#382,#216,.T.);
#469=EDGE_CURVE('',#384,#385,#217,.T.);
#470=EDGE_CURVE('',#386,#385,#218,.T.);
#471=EDGE_CURVE('',#386,#387,#219,.T.);
#472=EDGE_CURVE('',#383,#387,#220,.T.);
#473=EDGE_CURVE('',#388,#376,#221,.T.);
#474=EDGE_CURVE('',#389,#388,#222,.T.);
#475=EDGE_CURVE('',#389,#390,#223,.T.);
#476=EDGE_CURVE('',#390,#391,#224,.T.);
#477=EDGE_CURVE('',#391,#392,#225,.T.);
#478=EDGE_CURVE('',#393,#392,#226,.T.);
#479=EDGE_CURVE('',#394,#393,#227,.T.);
#480=EDGE_CURVE('',#395,#394,#228,.T.);
#481=EDGE_CURVE('',#396,#395,#229,.T.);
#482=EDGE_CURVE('',#396,#397,#230,.T.);
#483=EDGE_CURVE('',#397,#398,#231,.T.);
#484=EDGE_CURVE('',#398,#399,#232,.T.);
#485=EDGE_CURVE('',#399,#400,#233,.T.);
#486=EDGE_CURVE('',#400,#401,#234,.T.);
#487=EDGE_CURVE('',#401,#402,#235,.T.);
#488=EDGE_CURVE('',#382,#402,#236,.T.);
#489=EDGE_CURVE('',#380,#383,#237,.T.);
#490=EDGE_CURVE('',#391,#403,#238,.T.);
#491=EDGE_CURVE('',#403,#404,#239,.T.);
#492=EDGE_CURVE('',#392,#404,#240,.T.);
#493=EDGE_CURVE('',#405,#390,#241,.T.);
#494=EDGE_CURVE('',#403,#405,#242,.T.);
#495=EDGE_CURVE('',#406,#389,#243,.T.);
#496=EDGE_CURVE('',#406,#405,#244,.T.);
#497=EDGE_CURVE('',#407,#377,#245,.T.);
#498=EDGE_CURVE('',#388,#407,#246,.T.);
#499=EDGE_CURVE('',#387,#381,#247,.T.);
#500=EDGE_CURVE('',#384,#408,#170,.T.);
#501=EDGE_CURVE('',#408,#385,#171,.T.);
#502=EDGE_CURVE('',#385,#409,#172,.T.);
#503=EDGE_CURVE('',#409,#410,#248,.T.);
#504=EDGE_CURVE('',#410,#386,#249,.T.);
#505=EDGE_CURVE('',#402,#411,#250,.T.);
#506=EDGE_CURVE('',#411,#384,#173,.T.);
#507=EDGE_CURVE('',#412,#413,#251,.T.);
#508=EDGE_CURVE('',#394,#412,#252,.T.);
#509=EDGE_CURVE('',#413,#393,#253,.T.);
#510=EDGE_CURVE('',#404,#413,#254,.T.);
#511=EDGE_CURVE('',#412,#414,#255,.T.);
#512=EDGE_CURVE('',#414,#415,#256,.T.);
#513=EDGE_CURVE('',#415,#416,#174,.T.);
#514=EDGE_CURVE('',#416,#395,#257,.T.);
#515=EDGE_CURVE('',#417,#417,#175,.T.);
#516=EDGE_CURVE('',#417,#418,#258,.T.);
#517=EDGE_CURVE('',#419,#418,#176,.T.);
#518=EDGE_CURVE('',#416,#419,#259,.T.);
#519=EDGE_CURVE('',#420,#415,#260,.T.);
#520=EDGE_CURVE('',#418,#420,#177,.T.);
#521=EDGE_CURVE('',#421,#421,#178,.T.);
#522=EDGE_CURVE('',#421,#408,#261,.T.);
#523=EDGE_CURVE('',#422,#411,#262,.T.);
#524=EDGE_CURVE('',#423,#422,#179,.T.);
#525=EDGE_CURVE('',#409,#423,#263,.T.);
#526=EDGE_CURVE('',#419,#424,#264,.T.);
#527=EDGE_CURVE('',#424,#396,#265,.T.);
#528=EDGE_CURVE('',#407,#406,#266,.T.);
#529=EDGE_CURVE('',#423,#425,#267,.T.);
#530=EDGE_CURVE('',#425,#426,#268,.T.);
#531=EDGE_CURVE('',#426,#410,#269,.T.);
#532=EDGE_CURVE('',#427,#422,#270,.T.);
#533=EDGE_CURVE('',#427,#425,#180,.T.);
#534=EDGE_CURVE('',#399,#400,#181,.T.);
#535=EDGE_CURVE('',#425,#428,#182,.T.);
#536=EDGE_CURVE('',#400,#427,#183,.T.);
#537=EDGE_CURVE('',#428,#399,#184,.T.);
#538=EDGE_CURVE('',#428,#429,#271,.T.);
#539=EDGE_CURVE('',#429,#429,#185,.T.);
#540=EDGE_CURVE('',#398,#430,#186,.T.);
#541=EDGE_CURVE('',#431,#430,#272,.T.);
#542=EDGE_CURVE('',#426,#431,#273,.T.);
#543=EDGE_CURVE('',#401,#427,#274,.T.);
#544=EDGE_CURVE('',#397,#398,#187,.T.);
#545=EDGE_CURVE('',#430,#420,#275,.T.);
#546=EDGE_CURVE('',#430,#432,#188,.T.);
#547=EDGE_CURVE('',#432,#424,#189,.T.);
#548=EDGE_CURVE('',#424,#397,#190,.T.);
#549=EDGE_CURVE('',#432,#433,#276,.T.);
#550=EDGE_CURVE('',#433,#433,#191,.T.);
#551=EDGE_CURVE('',#431,#414,#277,.T.);
#552=EDGE_CURVE('',#434,#434,#192,.T.);
#553=EDGE_CURVE('',#434,#435,#278,.T.);
#554=EDGE_CURVE('',#435,#435,#193,.T.);
#555=EDGE_CURVE('',#436,#436,#194,.T.);
#556=EDGE_CURVE('',#437,#437,#195,.T.);
#557=EDGE_CURVE('',#437,#436,#279,.T.);
#558=EDGE_CURVE('',#438,#438,#196,.T.);
#559=EDGE_CURVE('',#438,#439,#280,.T.);
#560=EDGE_CURVE('',#439,#439,#197,.T.);
#561=EDGE_CURVE('',#440,#440,#198,.T.);
#562=EDGE_CURVE('',#441,#441,#199,.T.);
#563=EDGE_CURVE('',#441,#440,#281,.T.);
#564=ORIENTED_EDGE('',*,*,#442,.F.);
#565=ORIENTED_EDGE('',*,*,#443,.F.);
#566=ORIENTED_EDGE('',*,*,#444,.F.);
#567=ORIENTED_EDGE('',*,*,#445,.F.);
#568=ORIENTED_EDGE('',*,*,#446,.F.);
#569=ORIENTED_EDGE('',*,*,#443,.T.);
#570=ORIENTED_EDGE('',*,*,#447,.F.);
#571=ORIENTED_EDGE('',*,*,#445,.T.);
#572=ORIENTED_EDGE('',*,*,#448,.F.);
#573=ORIENTED_EDGE('',*,*,#449,.T.);
#574=ORIENTED_EDGE('',*,*,#450,.F.);
#575=ORIENTED_EDGE('',*,*,#449,.F.);
#576=ORIENTED_EDGE('',*,*,#448,.T.);
#577=ORIENTED_EDGE('',*,*,#451,.F.);
#578=ORIENTED_EDGE('',*,*,#452,.F.);
#579=ORIENTED_EDGE('',*,*,#453,.T.);
#580=ORIENTED_EDGE('',*,*,#454,.F.);
#581=ORIENTED_EDGE('',*,*,#453,.F.);
#582=ORIENTED_EDGE('',*,*,#452,.T.);
#583=ORIENTED_EDGE('',*,*,#455,.F.);
#584=ORIENTED_EDGE('',*,*,#456,.F.);
#585=ORIENTED_EDGE('',*,*,#457,.T.);
#586=ORIENTED_EDGE('',*,*,#451,.T.);
#587=ORIENTED_EDGE('',*,*,#457,.F.);
#588=ORIENTED_EDGE('',*,*,#458,.F.);
#589=ORIENTED_EDGE('',*,*,#459,.T.);
#590=ORIENTED_EDGE('',*,*,#455,.T.);
#591=ORIENTED_EDGE('',*,*,#459,.F.);
#592=ORIENTED_EDGE('',*,*,#460,.F.);
#593=ORIENTED_EDGE('',*,*,#461,.F.);
#594=ORIENTED_EDGE('',*,*,#462,.F.);
#595=ORIENTED_EDGE('',*,*,#463,.F.);
#596=ORIENTED_EDGE('',*,*,#458,.T.);
#597=ORIENTED_EDGE('',*,*,#462,.T.);
#598=ORIENTED_EDGE('',*,*,#464,.T.);
#599=ORIENTED_EDGE('',*,*,#465,.F.);
#600=ORIENTED_EDGE('',*,*,#466,.F.);
#601=ORIENTED_EDGE('',*,*,#467,.F.);
#602=ORIENTED_EDGE('',*,*,#468,.F.);
#603=ORIENTED_EDGE('',*,*,#469,.T.);
#604=ORIENTED_EDGE('',*,*,#470,.F.);
#605=ORIENTED_EDGE('',*,*,#471,.T.);
#606=ORIENTED_EDGE('',*,*,#472,.F.);
#607=ORIENTED_EDGE('',*,*,#473,.F.);
#608=ORIENTED_EDGE('',*,*,#474,.F.);
#609=ORIENTED_EDGE('',*,*,#475,.T.);
#610=ORIENTED_EDGE('',*,*,#476,.T.);
#611=ORIENTED_EDGE('',*,*,#477,.T.);
#612=ORIENTED_EDGE('',*,*,#478,.F.);
#613=ORIENTED_EDGE('',*,*,#479,.F.);
#614=ORIENTED_EDGE('',*,*,#480,.F.);
#615=ORIENTED_EDGE('',*,*,#481,.F.);
#616=ORIENTED_EDGE('',*,*,#482,.T.);
#617=ORIENTED_EDGE('',*,*,#483,.T.);
#618=ORIENTED_EDGE('',*,*,#484,.T.);
#619=ORIENTED_EDGE('',*,*,#485,.T.);
#620=ORIENTED_EDGE('',*,*,#486,.T.);
#621=ORIENTED_EDGE('',*,*,#487,.T.);
#622=ORIENTED_EDGE('',*,*,#488,.F.);
#623=ORIENTED_EDGE('',*,*,#467,.T.);
#624=ORIENTED_EDGE('',*,*,#489,.F.);
#625=ORIENTED_EDGE('',*,*,#464,.F.);
#626=ORIENTED_EDGE('',*,*,#461,.T.);
#627=ORIENTED_EDGE('',*,*,#490,.T.);
#628=ORIENTED_EDGE('',*,*,#491,.T.);
#629=ORIENTED_EDGE('',*,*,#492,.F.);
#630=ORIENTED_EDGE('',*,*,#477,.F.);
#631=ORIENTED_EDGE('',*,*,#493,.F.);
#632=ORIENTED_EDGE('',*,*,#494,.F.);
#633=ORIENTED_EDGE('',*,*,#490,.F.);
#634=ORIENTED_EDGE('',*,*,#476,.F.);
#635=ORIENTED_EDGE('',*,*,#456,.T.);
#636=ORIENTED_EDGE('',*,*,#493,.T.);
#637=ORIENTED_EDGE('',*,*,#475,.F.);
#638=ORIENTED_EDGE('',*,*,#495,.F.);
#639=ORIENTED_EDGE('',*,*,#496,.T.);
#640=ORIENTED_EDGE('',*,*,#460,.T.);
#641=ORIENTED_EDGE('',*,*,#497,.F.);
#642=ORIENTED_EDGE('',*,*,#498,.F.);
#643=ORIENTED_EDGE('',*,*,#473,.T.);
#644=ORIENTED_EDGE('',*,*,#446,.T.);
#645=ORIENTED_EDGE('',*,*,#447,.T.);
#646=ORIENTED_EDGE('',*,*,#444,.T.);
#647=ORIENTED_EDGE('',*,*,#442,.T.);
#648=ORIENTED_EDGE('',*,*,#489,.T.);
#649=ORIENTED_EDGE('',*,*,#472,.T.);
#650=ORIENTED_EDGE('',*,*,#499,.T.);
#651=ORIENTED_EDGE('',*,*,#465,.T.);
#652=ORIENTED_EDGE('',*,*,#454,.T.);
#653=ORIENTED_EDGE('',*,*,#500,.T.);
#654=ORIENTED_EDGE('',*,*,#501,.T.);
#655=ORIENTED_EDGE('',*,*,#469,.F.);
#656=ORIENTED_EDGE('',*,*,#470,.T.);
#657=ORIENTED_EDGE('',*,*,#502,.T.);
#658=ORIENTED_EDGE('',*,*,#503,.T.);
#659=ORIENTED_EDGE('',*,*,#504,.T.);
#660=ORIENTED_EDGE('',*,*,#468,.T.);
#661=ORIENTED_EDGE('',*,*,#488,.T.);
#662=ORIENTED_EDGE('',*,*,#505,.T.);
#663=ORIENTED_EDGE('',*,*,#506,.T.);
#664=ORIENTED_EDGE('',*,*,#507,.F.);
#665=ORIENTED_EDGE('',*,*,#508,.F.);
#666=ORIENTED_EDGE('',*,*,#479,.T.);
#667=ORIENTED_EDGE('',*,*,#509,.F.);
#668=ORIENTED_EDGE('',*,*,#509,.T.);
#669=ORIENTED_EDGE('',*,*,#478,.T.);
#670=ORIENTED_EDGE('',*,*,#492,.T.);
#671=ORIENTED_EDGE('',*,*,#510,.T.);
#672=ORIENTED_EDGE('',*,*,#450,.T.);
#673=ORIENTED_EDGE('',*,*,#508,.T.);
#674=ORIENTED_EDGE('',*,*,#511,.T.);
#675=ORIENTED_EDGE('',*,*,#512,.T.);
#676=ORIENTED_EDGE('',*,*,#513,.T.);
#677=ORIENTED_EDGE('',*,*,#514,.T.);
#678=ORIENTED_EDGE('',*,*,#480,.T.);
#679=ORIENTED_EDGE('',*,*,#515,.F.);
#680=ORIENTED_EDGE('',*,*,#516,.T.);
#681=ORIENTED_EDGE('',*,*,#517,.F.);
#682=ORIENTED_EDGE('',*,*,#518,.F.);
#683=ORIENTED_EDGE('',*,*,#513,.F.);
#684=ORIENTED_EDGE('',*,*,#519,.F.);
#685=ORIENTED_EDGE('',*,*,#520,.F.);
#686=ORIENTED_EDGE('',*,*,#516,.F.);
#687=ORIENTED_EDGE('',*,*,#521,.F.);
#688=ORIENTED_EDGE('',*,*,#522,.T.);
#689=ORIENTED_EDGE('',*,*,#500,.F.);
#690=ORIENTED_EDGE('',*,*,#506,.F.);
#691=ORIENTED_EDGE('',*,*,#523,.F.);
#692=ORIENTED_EDGE('',*,*,#524,.F.);
#693=ORIENTED_EDGE('',*,*,#525,.F.);
#694=ORIENTED_EDGE('',*,*,#502,.F.);
#695=ORIENTED_EDGE('',*,*,#501,.F.);
#696=ORIENTED_EDGE('',*,*,#522,.F.);
#697=ORIENTED_EDGE('',*,*,#518,.T.);
#698=ORIENTED_EDGE('',*,*,#526,.T.);
#699=ORIENTED_EDGE('',*,*,#527,.T.);
#700=ORIENTED_EDGE('',*,*,#481,.T.);
#701=ORIENTED_EDGE('',*,*,#514,.F.);
#702=ORIENTED_EDGE('',*,*,#498,.T.);
#703=ORIENTED_EDGE('',*,*,#528,.T.);
#704=ORIENTED_EDGE('',*,*,#495,.T.);
#705=ORIENTED_EDGE('',*,*,#474,.T.);
#706=ORIENTED_EDGE('',*,*,#525,.T.);
#707=ORIENTED_EDGE('',*,*,#529,.T.);
#708=ORIENTED_EDGE('',*,*,#530,.T.);
#709=ORIENTED_EDGE('',*,*,#531,.T.);
#710=ORIENTED_EDGE('',*,*,#503,.F.);
#711=ORIENTED_EDGE('',*,*,#524,.T.);
#712=ORIENTED_EDGE('',*,*,#532,.F.);
#713=ORIENTED_EDGE('',*,*,#533,.T.);
#714=ORIENTED_EDGE('',*,*,#529,.F.);
#715=ORIENTED_EDGE('',*,*,#485,.F.);
#716=ORIENTED_EDGE('',*,*,#534,.T.);
#717=ORIENTED_EDGE('',*,*,#535,.F.);
#718=ORIENTED_EDGE('',*,*,#533,.F.);
#719=ORIENTED_EDGE('',*,*,#536,.F.);
#720=ORIENTED_EDGE('',*,*,#534,.F.);
#721=ORIENTED_EDGE('',*,*,#537,.F.);
#722=ORIENTED_EDGE('',*,*,#538,.T.);
#723=ORIENTED_EDGE('',*,*,#539,.T.);
#724=ORIENTED_EDGE('',*,*,#538,.F.);
#725=ORIENTED_EDGE('',*,*,#539,.F.);
#726=ORIENTED_EDGE('',*,*,#521,.T.);
#727=ORIENTED_EDGE('',*,*,#535,.T.);
#728=ORIENTED_EDGE('',*,*,#537,.T.);
#729=ORIENTED_EDGE('',*,*,#484,.F.);
#730=ORIENTED_EDGE('',*,*,#540,.T.);
#731=ORIENTED_EDGE('',*,*,#541,.F.);
#732=ORIENTED_EDGE('',*,*,#542,.F.);
#733=ORIENTED_EDGE('',*,*,#530,.F.);
#734=ORIENTED_EDGE('',*,*,#536,.T.);
#735=ORIENTED_EDGE('',*,*,#543,.F.);
#736=ORIENTED_EDGE('',*,*,#486,.F.);
#737=ORIENTED_EDGE('',*,*,#483,.F.);
#738=ORIENTED_EDGE('',*,*,#544,.T.);
#739=ORIENTED_EDGE('',*,*,#517,.T.);
#740=ORIENTED_EDGE('',*,*,#520,.T.);
#741=ORIENTED_EDGE('',*,*,#545,.F.);
#742=ORIENTED_EDGE('',*,*,#546,.T.);
#743=ORIENTED_EDGE('',*,*,#547,.T.);
#744=ORIENTED_EDGE('',*,*,#526,.F.);
#745=ORIENTED_EDGE('',*,*,#546,.F.);
#746=ORIENTED_EDGE('',*,*,#540,.F.);
#747=ORIENTED_EDGE('',*,*,#544,.F.);
#748=ORIENTED_EDGE('',*,*,#548,.F.);
#749=ORIENTED_EDGE('',*,*,#547,.F.);
#750=ORIENTED_EDGE('',*,*,#549,.T.);
#751=ORIENTED_EDGE('',*,*,#550,.T.);
#752=ORIENTED_EDGE('',*,*,#549,.F.);
#753=ORIENTED_EDGE('',*,*,#550,.F.);
#754=ORIENTED_EDGE('',*,*,#515,.T.);
#755=ORIENTED_EDGE('',*,*,#548,.T.);
#756=ORIENTED_EDGE('',*,*,#482,.F.);
#757=ORIENTED_EDGE('',*,*,#527,.F.);
#758=ORIENTED_EDGE('',*,*,#471,.F.);
#759=ORIENTED_EDGE('',*,*,#504,.F.);
#760=ORIENTED_EDGE('',*,*,#531,.F.);
#761=ORIENTED_EDGE('',*,*,#542,.T.);
#762=ORIENTED_EDGE('',*,*,#551,.T.);
#763=ORIENTED_EDGE('',*,*,#511,.F.);
#764=ORIENTED_EDGE('',*,*,#507,.T.);
#765=ORIENTED_EDGE('',*,*,#510,.F.);
#766=ORIENTED_EDGE('',*,*,#491,.F.);
#767=ORIENTED_EDGE('',*,*,#494,.T.);
#768=ORIENTED_EDGE('',*,*,#496,.F.);
#769=ORIENTED_EDGE('',*,*,#528,.F.);
#770=ORIENTED_EDGE('',*,*,#497,.T.);
#771=ORIENTED_EDGE('',*,*,#463,.T.);
#772=ORIENTED_EDGE('',*,*,#466,.T.);
#773=ORIENTED_EDGE('',*,*,#499,.F.);
#774=ORIENTED_EDGE('',*,*,#523,.T.);
#775=ORIENTED_EDGE('',*,*,#505,.F.);
#776=ORIENTED_EDGE('',*,*,#487,.F.);
#777=ORIENTED_EDGE('',*,*,#543,.T.);
#778=ORIENTED_EDGE('',*,*,#532,.T.);
#779=ORIENTED_EDGE('',*,*,#519,.T.);
#780=ORIENTED_EDGE('',*,*,#512,.F.);
#781=ORIENTED_EDGE('',*,*,#551,.F.);
#782=ORIENTED_EDGE('',*,*,#541,.T.);
#783=ORIENTED_EDGE('',*,*,#545,.T.);
#784=ORIENTED_EDGE('',*,*,#552,.F.);
#785=ORIENTED_EDGE('',*,*,#553,.T.);
#786=ORIENTED_EDGE('',*,*,#554,.T.);
#787=ORIENTED_EDGE('',*,*,#553,.F.);
#788=ORIENTED_EDGE('',*,*,#555,.F.);
#789=ORIENTED_EDGE('',*,*,#554,.F.);
#790=ORIENTED_EDGE('',*,*,#556,.F.);
#791=ORIENTED_EDGE('',*,*,#557,.T.);
#792=ORIENTED_EDGE('',*,*,#555,.T.);
#793=ORIENTED_EDGE('',*,*,#557,.F.);
#794=ORIENTED_EDGE('',*,*,#556,.T.);
#795=ORIENTED_EDGE('',*,*,#552,.T.);
#796=ORIENTED_EDGE('',*,*,#558,.F.);
#797=ORIENTED_EDGE('',*,*,#559,.T.);
#798=ORIENTED_EDGE('',*,*,#560,.T.);
#799=ORIENTED_EDGE('',*,*,#559,.F.);
#800=ORIENTED_EDGE('',*,*,#561,.F.);
#801=ORIENTED_EDGE('',*,*,#560,.F.);
#802=ORIENTED_EDGE('',*,*,#562,.F.);
#803=ORIENTED_EDGE('',*,*,#563,.T.);
#804=ORIENTED_EDGE('',*,*,#561,.T.);
#805=ORIENTED_EDGE('',*,*,#563,.F.);
#806=ORIENTED_EDGE('',*,*,#562,.T.);
#807=ORIENTED_EDGE('',*,*,#558,.T.);
#808=PLANE('',#917);
#809=PLANE('',#921);
#810=PLANE('',#925);
#811=PLANE('',#930);
#812=PLANE('',#936);
#813=PLANE('',#937);
#814=PLANE('',#938);
#815=PLANE('',#939);
#816=PLANE('',#940);
#817=PLANE('',#941);
#818=PLANE('',#942);
#819=PLANE('',#943);
#820=PLANE('',#944);
#821=PLANE('',#945);
#822=PLANE('',#948);
#823=PLANE('',#950);
#824=PLANE('',#952);
#825=PLANE('',#953);
#826=PLANE('',#954);
#827=PLANE('',#963);
#828=PLANE('',#964);
#829=PLANE('',#965);
#830=PLANE('',#966);
#831=PLANE('',#968);
#832=PLANE('',#975);
#833=PLANE('',#976);
#834=PLANE('',#978);
#835=PLANE('',#979);
#836=PLANE('',#981);
#837=PLANE('',#987);
#838=PLANE('',#988);
#839=PLANE('',#989);
#840=PLANE('',#990);
#841=PLANE('',#991);
#842=PLANE('',#995);
#843=PLANE('',#999);
#844=PLANE('',#1000);
#845=PLANE('',#1004);
#846=PLANE('',#1008);
#847=PLANE('',#1009);
#848=ADVANCED_FACE('',(#43),#808,.F.);
#849=ADVANCED_FACE('',(#44),#30,.F.);
#850=ADVANCED_FACE('',(#45),#809,.T.);
#851=ADVANCED_FACE('',(#46),#31,.F.);
#852=ADVANCED_FACE('',(#47,#19),#810,.T.);
#853=ADVANCED_FACE('',(#48),#32,.F.);
#854=ADVANCED_FACE('',(#49,#20),#811,.T.);
#855=ADVANCED_FACE('',(#50),#33,.F.);
#856=ADVANCED_FACE('',(#51),#34,.F.);
#857=ADVANCED_FACE('',(#52,#21),#812,.F.);
#858=ADVANCED_FACE('',(#53),#813,.T.);
#859=ADVANCED_FACE('',(#54),#814,.T.);
#860=ADVANCED_FACE('',(#55),#815,.T.);
#861=ADVANCED_FACE('',(#56),#816,.T.);
#862=ADVANCED_FACE('',(#57,#22),#817,.F.);
#863=ADVANCED_FACE('',(#58),#818,.T.);
#864=ADVANCED_FACE('',(#59,#23),#819,.T.);
#865=ADVANCED_FACE('',(#60,#24),#820,.T.);
#866=ADVANCED_FACE('',(#61),#821,.F.);
#867=ADVANCED_FACE('',(#62),#822,.T.);
#868=ADVANCED_FACE('',(#63),#823,.T.);
#869=ADVANCED_FACE('',(#64),#824,.T.);
#870=ADVANCED_FACE('',(#65,#25),#825,.T.);
#871=ADVANCED_FACE('',(#66),#826,.T.);
#872=ADVANCED_FACE('',(#67),#35,.F.);
#873=ADVANCED_FACE('',(#68),#36,.F.);
#874=ADVANCED_FACE('',(#69),#827,.T.);
#875=ADVANCED_FACE('',(#70),#828,.T.);
#876=ADVANCED_FACE('',(#71),#829,.T.);
#877=ADVANCED_FACE('',(#72),#830,.T.);
#878=ADVANCED_FACE('',(#73),#831,.T.);
#879=ADVANCED_FACE('',(#74),#37,.T.);
#880=ADVANCED_FACE('',(#75,#26),#832,.F.);
#881=ADVANCED_FACE('',(#76),#833,.F.);
#882=ADVANCED_FACE('',(#77),#834,.F.);
#883=ADVANCED_FACE('',(#78),#835,.T.);
#884=ADVANCED_FACE('',(#79),#836,.T.);
#885=ADVANCED_FACE('',(#80),#38,.T.);
#886=ADVANCED_FACE('',(#81,#27),#837,.F.);
#887=ADVANCED_FACE('',(#82),#838,.F.);
#888=ADVANCED_FACE('',(#83),#839,.T.);
#889=ADVANCED_FACE('',(#84),#840,.T.);
#890=ADVANCED_FACE('',(#85),#841,.T.);
#891=ADVANCED_FACE('',(#86),#39,.T.);
#892=ADVANCED_FACE('',(#87,#28),#842,.F.);
#893=ADVANCED_FACE('',(#88),#40,.T.);
#894=ADVANCED_FACE('',(#89),#843,.T.);
#895=ADVANCED_FACE('',(#90),#844,.F.);
#896=ADVANCED_FACE('',(#91),#41,.T.);
#897=ADVANCED_FACE('',(#92,#29),#845,.F.);
#898=ADVANCED_FACE('',(#93),#42,.T.);
#899=ADVANCED_FACE('',(#94),#846,.T.);
#900=ADVANCED_FACE('',(#95),#847,.F.);
#901=CLOSED_SHELL('',(#848,#849,#850,#851,#852,#853,#854,#855,#856,#857,
#858,#859,#860,#861,#862,#863,#864,#865,#866,#867,#868,#869,#870,#871,#872,
#873,#874,#875,#876,#877,#878,#879,#880,#881,#882,#883,#884,#885,#886,#887,
#888,#889,#890));
#902=CLOSED_SHELL('',(#891,#892,#893,#894,#895));
#903=CLOSED_SHELL('',(#896,#897,#898,#899,#900));
#904=DERIVED_UNIT_ELEMENT(#906,1.);
#905=DERIVED_UNIT_ELEMENT(#1539,-3.);
#906=(
MASS_UNIT()
NAMED_UNIT(*)
SI_UNIT(.KILO.,.GRAM.)
);
#907=DERIVED_UNIT((#904,#905));
#908=MEASURE_REPRESENTATION_ITEM('density measure',
POSITIVE_RATIO_MEASURE(7850.),#907);
#909=PROPERTY_DEFINITION_REPRESENTATION(#914,#911);
#910=PROPERTY_DEFINITION_REPRESENTATION(#915,#912);
#911=REPRESENTATION('material name',(#913),#1536);
#912=REPRESENTATION('density',(#908),#1536);
#913=DESCRIPTIVE_REPRESENTATION_ITEM('Steel','Steel');
#914=PROPERTY_DEFINITION('material property','material name',#1546);
#915=PROPERTY_DEFINITION('material property','density of part',#1546);
#916=AXIS2_PLACEMENT_3D('',#1280,#1010,#1011);
#917=AXIS2_PLACEMENT_3D('',#1281,#1012,#1013);
#918=AXIS2_PLACEMENT_3D('',#1285,#1015,#1016);
#919=AXIS2_PLACEMENT_3D('',#1286,#1017,#1018);
#920=AXIS2_PLACEMENT_3D('',#1290,#1020,#1021);
#921=AXIS2_PLACEMENT_3D('',#1292,#1023,#1024);
#922=AXIS2_PLACEMENT_3D('',#1294,#1026,#1027);
#923=AXIS2_PLACEMENT_3D('',#1296,#1028,#1029);
#924=AXIS2_PLACEMENT_3D('',#1299,#1031,#1032);
#925=AXIS2_PLACEMENT_3D('',#1300,#1033,#1034);
#926=AXIS2_PLACEMENT_3D('',#1302,#1035,#1036);
#927=AXIS2_PLACEMENT_3D('',#1303,#1037,#1038);
#928=AXIS2_PLACEMENT_3D('',#1305,#1039,#1040);
#929=AXIS2_PLACEMENT_3D('',#1308,#1042,#1043);
#930=AXIS2_PLACEMENT_3D('',#1309,#1044,#1045);
#931=AXIS2_PLACEMENT_3D('',#1311,#1046,#1047);
#932=AXIS2_PLACEMENT_3D('',#1312,#1048,#1049);
#933=AXIS2_PLACEMENT_3D('',#1314,#1050,#1051);
#934=AXIS2_PLACEMENT_3D('',#1316,#1053,#1054);
#935=AXIS2_PLACEMENT_3D('',#1318,#1055,#1056);
#936=AXIS2_PLACEMENT_3D('',#1320,#1058,#1059);
#937=AXIS2_PLACEMENT_3D('',#1329,#1064,#1065);
#938=AXIS2_PLACEMENT_3D('',#1335,#1069,#1070);
#939=AXIS2_PLACEMENT_3D('',#1348,#1077,#1078);
#940=AXIS2_PLACEMENT_3D('',#1381,#1096,#1097);
#941=AXIS2_PLACEMENT_3D('',#1387,#1101,#1102);
#942=AXIS2_PLACEMENT_3D('',#1391,#1105,#1106);
#943=AXIS2_PLACEMENT_3D('',#1395,#1109,#1110);
#944=AXIS2_PLACEMENT_3D('',#1399,#1113,#1114);
#945=AXIS2_PLACEMENT_3D('',#1401,#1116,#1117);
#946=AXIS2_PLACEMENT_3D('',#1403,#1118,#1119);
#947=AXIS2_PLACEMENT_3D('',#1404,#1120,#1121);
#948=AXIS2_PLACEMENT_3D('',#1405,#1122,#1123);
#949=AXIS2_PLACEMENT_3D('',#1407,#1124,#1125);
#950=AXIS2_PLACEMENT_3D('',#1411,#1128,#1129);
#951=AXIS2_PLACEMENT_3D('',#1414,#1131,#1132);
#952=AXIS2_PLACEMENT_3D('',#1415,#1133,#1134);
#953=AXIS2_PLACEMENT_3D('',#1421,#1138,#1139);
#954=AXIS2_PLACEMENT_3D('',#1423,#1141,#1142);
#955=AXIS2_PLACEMENT_3D('',#1429,#1145,#1146);
#956=AXIS2_PLACEMENT_3D('',#1431,#1148,#1149);
#957=AXIS2_PLACEMENT_3D('',#1433,#1150,#1151);
#958=AXIS2_PLACEMENT_3D('',#1437,#1153,#1154);
#959=AXIS2_PLACEMENT_3D('',#1441,#1157,#1158);
#960=AXIS2_PLACEMENT_3D('',#1442,#1159,#1160);
#961=AXIS2_PLACEMENT_3D('',#1444,#1161,#1162);
#962=AXIS2_PLACEMENT_3D('',#1449,#1165,#1166);
#963=AXIS2_PLACEMENT_3D('',#1451,#1168,#1169);
#964=AXIS2_PLACEMENT_3D('',#1455,#1172,#1173);
#965=AXIS2_PLACEMENT_3D('',#1457,#1175,#1176);
#966=AXIS2_PLACEMENT_3D('',#1463,#1180,#1181);
#967=AXIS2_PLACEMENT_3D('',#1466,#1183,#1184);
#968=AXIS2_PLACEMENT_3D('',#1467,#1185,#1186);
#969=AXIS2_PLACEMENT_3D('',#1468,#1187,#1188);
#970=AXIS2_PLACEMENT_3D('',#1469,#1189,#1190);
#971=AXIS2_PLACEMENT_3D('',#1471,#1191,#1192);
#972=AXIS2_PLACEMENT_3D('',#1472,#1193,#1194);
#973=AXIS2_PLACEMENT_3D('',#1473,#1195,#1196);
#974=AXIS2_PLACEMENT_3D('',#1476,#1198,#1199);
#975=AXIS2_PLACEMENT_3D('',#1477,#1200,#1201);
#976=AXIS2_PLACEMENT_3D('',#1478,#1202,#1203);
#977=AXIS2_PLACEMENT_3D('',#1480,#1204,#1205);
#978=AXIS2_PLACEMENT_3D('',#1484,#1208,#1209);
#979=AXIS2_PLACEMENT_3D('',#1486,#1211,#1212);
#980=AXIS2_PLACEMENT_3D('',#1487,#1213,#1214);
#981=AXIS2_PLACEMENT_3D('',#1488,#1215,#1216);
#982=AXIS2_PLACEMENT_3D('',#1491,#1218,#1219);
#983=AXIS2_PLACEMENT_3D('',#1492,#1220,#1221);
#984=AXIS2_PLACEMENT_3D('',#1493,#1222,#1223);
#985=AXIS2_PLACEMENT_3D('',#1494,#1224,#1225);
#986=AXIS2_PLACEMENT_3D('',#1497,#1227,#1228);
#987=AXIS2_PLACEMENT_3D('',#1498,#1229,#1230);
#988=AXIS2_PLACEMENT_3D('',#1499,#1231,#1232);
#989=AXIS2_PLACEMENT_3D('',#1500,#1233,#1234);
#990=AXIS2_PLACEMENT_3D('',#1502,#1236,#1237);
#991=AXIS2_PLACEMENT_3D('',#1503,#1238,#1239);
#992=AXIS2_PLACEMENT_3D('',#1504,#1240,#1241);
#993=AXIS2_PLACEMENT_3D('',#1506,#1242,#1243);
#994=AXIS2_PLACEMENT_3D('',#1509,#1245,#1246);
#995=AXIS2_PLACEMENT_3D('',#1510,#1247,#1248);
#996=AXIS2_PLACEMENT_3D('',#1512,#1249,#1250);
#997=AXIS2_PLACEMENT_3D('',#1513,#1251,#1252);
#998=AXIS2_PLACEMENT_3D('',#1515,#1253,#1254);
#999=AXIS2_PLACEMENT_3D('',#1517,#1256,#1257);
#1000=AXIS2_PLACEMENT_3D('',#1518,#1258,#1259);
#1001=AXIS2_PLACEMENT_3D('',#1519,#1260,#1261);
#1002=AXIS2_PLACEMENT_3D('',#1521,#1262,#1263);
#1003=AXIS2_PLACEMENT_3D('',#1524,#1265,#1266);
#1004=AXIS2_PLACEMENT_3D('',#1525,#1267,#1268);
#1005=AXIS2_PLACEMENT_3D('',#1527,#1269,#1270);
#1006=AXIS2_PLACEMENT_3D('',#1528,#1271,#1272);
#1007=AXIS2_PLACEMENT_3D('',#1530,#1273,#1274);
#1008=AXIS2_PLACEMENT_3D('',#1532,#1276,#1277);
#1009=AXIS2_PLACEMENT_3D('',#1533,#1278,#1279);
#1010=DIRECTION('axis',(0.,0.,1.));
#1011=DIRECTION('refdir',(1.,0.,0.));
#1012=DIRECTION('center_axis',(0.,0.,1.));
#1013=DIRECTION('ref_axis',(1.,0.,0.));
#1014=DIRECTION('',(0.,-1.,0.));
#1015=DIRECTION('center_axis',(0.,0.,1.));
#1016=DIRECTION('ref_axis',(1.,0.,0.));
#1017=DIRECTION('center_axis',(0.,0.,1.));
#1018=DIRECTION('ref_axis',(1.,0.,0.));
#1019=DIRECTION('',(0.,0.,1.));
#1020=DIRECTION('center_axis',(0.,0.,1.));
#1021=DIRECTION('ref_axis',(1.,0.,0.));
#1022=DIRECTION('',(0.,0.,-1.));
#1023=DIRECTION('center_axis',(0.,0.,1.));
#1024=DIRECTION('ref_axis',(1.,0.,0.));
#1025=DIRECTION('',(0.,1.,0.));
#1026=DIRECTION('center_axis',(0.,0.,1.));
#1027=DIRECTION('ref_axis',(1.,0.,0.));
#1028=DIRECTION('center_axis',(0.,0.,1.));
#1029=DIRECTION('ref_axis',(1.,0.,0.));
#1030=DIRECTION('',(0.,0.,1.));
#1031=DIRECTION('center_axis',(0.,0.,-1.));
#1032=DIRECTION('ref_axis',(1.,0.,0.));
#1033=DIRECTION('center_axis',(0.,0.,1.));
#1034=DIRECTION('ref_axis',(1.,0.,0.));
#1035=DIRECTION('center_axis',(0.,0.,1.));
#1036=DIRECTION('ref_axis',(1.,0.,0.));
#1037=DIRECTION('center_axis',(0.,0.,1.));
#1038=DIRECTION('ref_axis',(1.,0.,0.));
#1039=DIRECTION('center_axis',(0.,0.,1.));
#1040=DIRECTION('ref_axis',(1.,0.,0.));
#1041=DIRECTION('',(0.,0.,1.));
#1042=DIRECTION('center_axis',(0.,0.,-1.));
#1043=DIRECTION('ref_axis',(1.,0.,0.));
#1044=DIRECTION('center_axis',(0.,0.,1.));
#1045=DIRECTION('ref_axis',(1.,0.,0.));
#1046=DIRECTION('center_axis',(0.,0.,1.));
#1047=DIRECTION('ref_axis',(1.,0.,0.));
#1048=DIRECTION('center_axis',(0.,0.,1.));
#1049=DIRECTION('ref_axis',(1.,0.,0.));
#1050=DIRECTION('center_axis',(0.,0.,1.));
#1051=DIRECTION('ref_axis',(1.,0.,0.));
#1052=DIRECTION('',(0.,0.,1.));
#1053=DIRECTION('center_axis',(0.,0.,1.));
#1054=DIRECTION('ref_axis',(1.,0.,0.));
#1055=DIRECTION('center_axis',(0.,0.,1.));
#1056=DIRECTION('ref_axis',(1.,0.,0.));
#1057=DIRECTION('',(0.,0.,1.));
#1058=DIRECTION('center_axis',(0.,0.,1.));
#1059=DIRECTION('ref_axis',(1.,0.,0.));
#1060=DIRECTION('',(0.,1.,0.));
#1061=DIRECTION('',(1.,0.,0.));
#1062=DIRECTION('',(0.,-1.,0.));
#1063=DIRECTION('',(-1.,0.,0.));
#1064=DIRECTION('center_axis',(-1.,0.,0.));
#1065=DIRECTION('ref_axis',(0.,-1.,0.));
#1066=DIRECTION('',(0.,0.,1.));
#1067=DIRECTION('',(0.,-1.,0.));
#1068=DIRECTION('',(0.,0.,1.));
#1069=DIRECTION('center_axis',(1.,0.,0.));
#1070=DIRECTION('ref_axis',(0.,1.,0.));
#1071=DIRECTION('',(0.,0.,1.));
#1072=DIRECTION('',(0.,-1.,0.));
#1073=DIRECTION('',(0.,1.,0.));
#1074=DIRECTION('',(0.,-1.,0.));
#1075=DIRECTION('',(0.,0.,1.));
#1076=DIRECTION('',(0.,1.,0.));
#1077=DIRECTION('center_axis',(0.,-1.,0.));
#1078=DIRECTION('ref_axis',(1.,0.,0.));
#1079=DIRECTION('',(0.,0.,1.));
#1080=DIRECTION('',(1.,0.,0.));
#1081=DIRECTION('',(0.,0.,1.));
#1082=DIRECTION('',(1.,0.,0.));
#1083=DIRECTION('',(0.,0.,1.));
#1084=DIRECTION('',(1.,0.,0.));
#1085=DIRECTION('',(0.,0.,1.));
#1086=DIRECTION('',(1.,0.,0.));
#1087=DIRECTION('',(0.,0.,1.));
#1088=DIRECTION('',(1.,0.,0.));
#1089=DIRECTION('',(1.,0.,0.));
#1090=DIRECTION('',(1.,0.,0.));
#1091=DIRECTION('',(1.,0.,0.));
#1092=DIRECTION('',(1.,0.,0.));
#1093=DIRECTION('',(0.,0.,1.));
#1094=DIRECTION('',(1.,0.,0.));
#1095=DIRECTION('',(1.,0.,0.));
#1096=DIRECTION('center_axis',(1.,0.,0.));
#1097=DIRECTION('ref_axis',(0.,1.,0.));
#1098=DIRECTION('',(0.,1.,0.));
#1099=DIRECTION('',(0.,0.,1.));
#1100=DIRECTION('',(0.,1.,0.));
#1101=DIRECTION('center_axis',(0.,0.,1.));
#1102=DIRECTION('ref_axis',(1.,0.,0.));
#1103=DIRECTION('',(0.,-1.,0.));
#1104=DIRECTION('',(-1.,0.,0.));
#1105=DIRECTION('center_axis',(1.,0.,0.));
#1106=DIRECTION('ref_axis',(0.,1.,0.));
#1107=DIRECTION('',(0.,-1.,0.));
#1108=DIRECTION('',(0.,0.,1.));
#1109=DIRECTION('center_axis',(-1.,0.,0.));
#1110=DIRECTION('ref_axis',(0.,-1.,0.));
#1111=DIRECTION('',(0.,0.,1.));
#1112=DIRECTION('',(0.,1.,0.));
#1113=DIRECTION('center_axis',(0.,0.,1.));
#1114=DIRECTION('ref_axis',(1.,0.,0.));
#1115=DIRECTION('',(-1.,0.,0.));
#1116=DIRECTION('center_axis',(0.,0.,1.));
#1117=DIRECTION('ref_axis',(1.,0.,0.));
#1118=DIRECTION('center_axis',(0.,0.,-1.));
#1119=DIRECTION('ref_axis',(1.,0.,0.));
#1120=DIRECTION('center_axis',(0.,0.,-1.));
#1121=DIRECTION('ref_axis',(1.,0.,0.));
#1122=DIRECTION('center_axis',(0.,0.,1.));
#1123=DIRECTION('ref_axis',(1.,0.,0.));
#1124=DIRECTION('center_axis',(0.,0.,-1.));
#1125=DIRECTION('ref_axis',(1.,0.,0.));
#1126=DIRECTION('',(0.,1.,0.));
#1127=DIRECTION('',(-1.,0.,0.));
#1128=DIRECTION('center_axis',(0.,0.,1.));
#1129=DIRECTION('ref_axis',(1.,0.,0.));
#1130=DIRECTION('',(0.,1.,0.));
#1131=DIRECTION('center_axis',(0.,0.,-1.));
#1132=DIRECTION('ref_axis',(1.,0.,0.));
#1133=DIRECTION('center_axis',(-1.,0.,0.));
#1134=DIRECTION('ref_axis',(0.,-1.,0.));
#1135=DIRECTION('',(0.,0.,1.));
#1136=DIRECTION('',(0.,1.,0.));
#1137=DIRECTION('',(0.,-1.,0.));
#1138=DIRECTION('center_axis',(0.,0.,1.));
#1139=DIRECTION('ref_axis',(1.,0.,0.));
#1140=DIRECTION('',(-1.,0.,0.));
#1141=DIRECTION('center_axis',(0.,0.,1.));
#1142=DIRECTION('ref_axis',(1.,0.,0.));
#1143=DIRECTION('',(-1.,0.,0.));
#1144=DIRECTION('',(0.,-1.,0.));
#1145=DIRECTION('center_axis',(0.,0.,-1.));
#1146=DIRECTION('ref_axis',(1.,0.,0.));
#1147=DIRECTION('',(0.,-1.,0.));
#1148=DIRECTION('center_axis',(0.,0.,1.));
#1149=DIRECTION('ref_axis',(1.,0.,0.));
#1150=DIRECTION('center_axis',(0.,0.,1.));
#1151=DIRECTION('ref_axis',(1.,0.,0.));
#1152=DIRECTION('',(0.,0.,1.));
#1153=DIRECTION('center_axis',(0.,0.,-1.));
#1154=DIRECTION('ref_axis',(1.,0.,0.));
#1155=DIRECTION('',(0.,0.,-1.));
#1156=DIRECTION('',(0.,0.,1.));
#1157=DIRECTION('center_axis',(0.,0.,-1.));
#1158=DIRECTION('ref_axis',(1.,0.,0.));
#1159=DIRECTION('center_axis',(0.,0.,1.));
#1160=DIRECTION('ref_axis',(1.,0.,0.));
#1161=DIRECTION('center_axis',(0.,0.,1.));
#1162=DIRECTION('ref_axis',(1.,0.,0.));
#1163=DIRECTION('',(0.,0.,1.));
#1164=DIRECTION('',(0.,0.,1.));
#1165=DIRECTION('center_axis',(0.,0.,-1.));
#1166=DIRECTION('ref_axis',(1.,0.,0.));
#1167=DIRECTION('',(0.,0.,-1.));
#1168=DIRECTION('center_axis',(-1.,0.,0.));
#1169=DIRECTION('ref_axis',(0.,-1.,0.));
#1170=DIRECTION('',(0.,-1.,0.));
#1171=DIRECTION('',(0.,-1.,0.));
#1172=DIRECTION('center_axis',(0.,0.,1.));
#1173=DIRECTION('ref_axis',(1.,0.,0.));
#1174=DIRECTION('',(-1.,0.,0.));
#1175=DIRECTION('center_axis',(1.,0.,0.));
#1176=DIRECTION('ref_axis',(0.,1.,0.));
#1177=DIRECTION('',(0.,1.,0.));
#1178=DIRECTION('',(0.,1.,0.));
#1179=DIRECTION('',(0.,0.,1.));
#1180=DIRECTION('center_axis',(0.,0.,1.));
#1181=DIRECTION('ref_axis',(1.,0.,0.));
#1182=DIRECTION('',(0.,1.,0.));
#1183=DIRECTION('center_axis',(0.,0.,1.));
#1184=DIRECTION('ref_axis',(1.,0.,0.));
#1185=DIRECTION('center_axis',(0.,0.,1.));
#1186=DIRECTION('ref_axis',(1.,0.,0.));
#1187=DIRECTION('center_axis',(0.,0.,1.));
#1188=DIRECTION('ref_axis',(1.,0.,0.));
#1189=DIRECTION('center_axis',(0.,0.,1.));
#1190=DIRECTION('ref_axis',(1.,0.,0.));
#1191=DIRECTION('center_axis',(0.,0.,1.));
#1192=DIRECTION('ref_axis',(1.,0.,0.));
#1193=DIRECTION('center_axis',(0.,0.,1.));
#1194=DIRECTION('ref_axis',(1.,0.,0.));
#1195=DIRECTION('center_axis',(0.,0.,1.));
#1196=DIRECTION('ref_axis',(1.,0.,0.));
#1197=DIRECTION('',(0.,0.,-1.));
#1198=DIRECTION('center_axis',(0.,0.,1.));
#1199=DIRECTION('ref_axis',(1.,0.,0.));
#1200=DIRECTION('center_axis',(0.,0.,1.));
#1201=DIRECTION('ref_axis',(1.,0.,0.));
#1202=DIRECTION('center_axis',(0.,0.,1.));
#1203=DIRECTION('ref_axis',(1.,0.,0.));
#1204=DIRECTION('center_axis',(0.,0.,1.));
#1205=DIRECTION('ref_axis',(1.,0.,0.));
#1206=DIRECTION('',(0.,-1.,0.));
#1207=DIRECTION('',(-1.,0.,0.));
#1208=DIRECTION('center_axis',(0.,0.,1.));
#1209=DIRECTION('ref_axis',(1.,0.,0.));
#1210=DIRECTION('',(0.,1.,0.));
#1211=DIRECTION('center_axis',(0.,0.,1.));
#1212=DIRECTION('ref_axis',(1.,0.,0.));
#1213=DIRECTION('center_axis',(0.,0.,1.));
#1214=DIRECTION('ref_axis',(1.,0.,0.));
#1215=DIRECTION('center_axis',(0.,0.,1.));
#1216=DIRECTION('ref_axis',(1.,0.,0.));
#1217=DIRECTION('',(0.,-1.,0.));
#1218=DIRECTION('center_axis',(0.,0.,1.));
#1219=DIRECTION('ref_axis',(1.,0.,0.));
#1220=DIRECTION('center_axis',(0.,0.,1.));
#1221=DIRECTION('ref_axis',(1.,0.,0.));
#1222=DIRECTION('center_axis',(0.,0.,1.));
#1223=DIRECTION('ref_axis',(1.,0.,0.));
#1224=DIRECTION('center_axis',(0.,0.,1.));
#1225=DIRECTION('ref_axis',(1.,0.,0.));
#1226=DIRECTION('',(0.,0.,-1.));
#1227=DIRECTION('center_axis',(0.,0.,1.));
#1228=DIRECTION('ref_axis',(1.,0.,0.));
#1229=DIRECTION('center_axis',(0.,0.,1.));
#1230=DIRECTION('ref_axis',(1.,0.,0.));
#1231=DIRECTION('center_axis',(0.,0.,1.));
#1232=DIRECTION('ref_axis',(1.,0.,0.));
#1233=DIRECTION('center_axis',(0.,1.,0.));
#1234=DIRECTION('ref_axis',(-1.,0.,0.));
#1235=DIRECTION('',(0.,0.,1.));
#1236=DIRECTION('center_axis',(1.,0.,0.));
#1237=DIRECTION('ref_axis',(0.,1.,0.));
#1238=DIRECTION('center_axis',(-1.,0.,0.));
#1239=DIRECTION('ref_axis',(0.,-1.,0.));
#1240=DIRECTION('center_axis',(0.,0.,1.));
#1241=DIRECTION('ref_axis',(1.,0.,0.));
#1242=DIRECTION('center_axis',(0.,0.,-1.));
#1243=DIRECTION('ref_axis',(1.,0.,0.));
#1244=DIRECTION('',(0.,0.,1.));
#1245=DIRECTION('center_axis',(0.,0.,-1.));
#1246=DIRECTION('ref_axis',(1.,0.,0.));
#1247=DIRECTION('center_axis',(0.,0.,1.));
#1248=DIRECTION('ref_axis',(1.,0.,0.));
#1249=DIRECTION('center_axis',(0.,0.,1.));
#1250=DIRECTION('ref_axis',(1.,0.,0.));
#1251=DIRECTION('center_axis',(0.,0.,1.));
#1252=DIRECTION('ref_axis',(1.,0.,0.));
#1253=DIRECTION('center_axis',(0.,0.,1.));
#1254=DIRECTION('ref_axis',(1.,0.,0.));
#1255=DIRECTION('',(0.,0.,-1.));
#1256=DIRECTION('center_axis',(0.,0.,1.));
#1257=DIRECTION('ref_axis',(1.,0.,0.));
#1258=DIRECTION('center_axis',(0.,0.,1.));
#1259=DIRECTION('ref_axis',(1.,0.,0.));
#1260=DIRECTION('center_axis',(0.,0.,1.));
#1261=DIRECTION('ref_axis',(1.,0.,0.));
#1262=DIRECTION('center_axis',(0.,0.,-1.));
#1263=DIRECTION('ref_axis',(1.,0.,0.));
#1264=DIRECTION('',(0.,0.,1.));
#1265=DIRECTION('center_axis',(0.,0.,-1.));
#1266=DIRECTION('ref_axis',(1.,0.,0.));
#1267=DIRECTION('center_axis',(0.,0.,1.));
#1268=DIRECTION('ref_axis',(1.,0.,0.));
#1269=DIRECTION('center_axis',(0.,0.,1.));
#1270=DIRECTION('ref_axis',(1.,0.,0.));
#1271=DIRECTION('center_axis',(0.,0.,1.));
#1272=DIRECTION('ref_axis',(1.,0.,0.));
#1273=DIRECTION('center_axis',(0.,0.,1.));
#1274=DIRECTION('ref_axis',(1.,0.,0.));
#1275=DIRECTION('',(0.,0.,-1.));
#1276=DIRECTION('center_axis',(0.,0.,1.));
#1277=DIRECTION('ref_axis',(1.,0.,0.));
#1278=DIRECTION('center_axis',(0.,0.,1.));
#1279=DIRECTION('ref_axis',(1.,0.,0.));
#1280=CARTESIAN_POINT('',(0.,0.,0.));
#1281=CARTESIAN_POINT('Origin',(34.,-26.25,6.6));
#1282=CARTESIAN_POINT('',(41.,-22.3770166537926,6.6));
#1283=CARTESIAN_POINT('',(41.,-30.1229833462074,6.6));
#1284=CARTESIAN_POINT('',(41.,-23.625,6.6));
#1285=CARTESIAN_POINT('Origin',(34.,-26.25,6.6));
#1286=CARTESIAN_POINT('Origin',(34.,-26.25,6.4));
#1287=CARTESIAN_POINT('',(41.,-22.3770166537926,6.4));
#1288=CARTESIAN_POINT('',(41.,-22.3770166537926,6.4));
#1289=CARTESIAN_POINT('',(41.,-30.1229833462074,6.4));
#1290=CARTESIAN_POINT('Origin',(34.,-26.25,6.4));
#1291=CARTESIAN_POINT('',(41.,-30.1229833462074,6.4));
#1292=CARTESIAN_POINT('Origin',(34.,-26.25,6.4));
#1293=CARTESIAN_POINT('',(41.,-23.625,6.4));
#1294=CARTESIAN_POINT('Origin',(-25.,-26.25,10.7));
#1295=CARTESIAN_POINT('',(-27.125,-26.25,10.7));
#1296=CARTESIAN_POINT('Origin',(-25.,-26.25,10.7));
#1297=CARTESIAN_POINT('',(-27.125,-26.25,16.7));
#1298=CARTESIAN_POINT('',(-27.125,-26.25,10.7));
#1299=CARTESIAN_POINT('Origin',(-25.,-26.25,16.7));
#1300=CARTESIAN_POINT('Origin',(-25.,-26.25,10.7));
#1301=CARTESIAN_POINT('',(-26.7,-26.25,10.7));
#1302=CARTESIAN_POINT('Origin',(-25.,-26.25,10.7));
#1303=CARTESIAN_POINT('Origin',(34.,-26.25,10.7));
#1304=CARTESIAN_POINT('',(31.875,-26.25,10.7));
#1305=CARTESIAN_POINT('Origin',(34.,-26.25,10.7));
#1306=CARTESIAN_POINT('',(31.875,-26.25,16.7));
#1307=CARTESIAN_POINT('',(31.875,-26.25,10.7));
#1308=CARTESIAN_POINT('Origin',(34.,-26.25,16.7));
#1309=CARTESIAN_POINT('Origin',(34.,-26.25,10.7));
#1310=CARTESIAN_POINT('',(32.3,-26.25,10.7));
#1311=CARTESIAN_POINT('Origin',(34.,-26.25,10.7));
#1312=CARTESIAN_POINT('Origin',(-25.,-26.25,8.7));
#1313=CARTESIAN_POINT('',(-26.7,-26.25,8.7));
#1314=CARTESIAN_POINT('Origin',(-25.,-26.25,8.7));
#1315=CARTESIAN_POINT('',(-26.7,-26.25,8.7));
#1316=CARTESIAN_POINT('Origin',(34.,-26.25,8.7));
#1317=CARTESIAN_POINT('',(32.3,-26.25,8.7));
#1318=CARTESIAN_POINT('Origin',(34.,-26.25,8.7));
#1319=CARTESIAN_POINT('',(32.3,-26.25,8.7));
#1320=CARTESIAN_POINT('Origin',(38.5,-26.25,8.7));
#1321=CARTESIAN_POINT('',(41.,-31.5,8.7));
#1322=CARTESIAN_POINT('',(41.,-21.,8.7));
#1323=CARTESIAN_POINT('',(41.,-23.625,8.7));
#1324=CARTESIAN_POINT('',(28.,-31.5,8.7));
#1325=CARTESIAN_POINT('',(28.,-31.5,8.7));
#1326=CARTESIAN_POINT('',(28.,-21.,8.7));
#1327=CARTESIAN_POINT('',(28.,-21.,8.7));
#1328=CARTESIAN_POINT('',(49.,-21.,8.7));
#1329=CARTESIAN_POINT('Origin',(28.,-21.,8.7));
#1330=CARTESIAN_POINT('',(28.,-31.5,16.7));
#1331=CARTESIAN_POINT('',(28.,-31.5,8.7));
#1332=CARTESIAN_POINT('',(28.,-21.,16.7));
#1333=CARTESIAN_POINT('',(28.,-21.,16.7));
#1334=CARTESIAN_POINT('',(28.,-21.,8.7));
#1335=CARTESIAN_POINT('Origin',(49.,-31.5,6.));
#1336=CARTESIAN_POINT('',(49.,-31.5,6.));
#1337=CARTESIAN_POINT('',(49.,-31.5,16.7));
#1338=CARTESIAN_POINT('',(49.,-31.5,6.));
#1339=CARTESIAN_POINT('',(49.,-28.9129707304997,6.));
#1340=CARTESIAN_POINT('',(49.,-28.875,6.));
#1341=CARTESIAN_POINT('',(49.,-26.9898482695004,6.));
#1342=CARTESIAN_POINT('',(49.,-31.5,6.));
#1343=CARTESIAN_POINT('',(49.,-21.,6.));
#1344=CARTESIAN_POINT('',(49.,-28.875,6.));
#1345=CARTESIAN_POINT('',(49.,-21.,16.7));
#1346=CARTESIAN_POINT('',(49.,-21.,6.));
#1347=CARTESIAN_POINT('',(49.,-31.5,16.7));
#1348=CARTESIAN_POINT('Origin',(-53.004,-31.5,3.6));
#1349=CARTESIAN_POINT('',(41.,-31.5,6.));
#1350=CARTESIAN_POINT('',(41.,-31.5,6.));
#1351=CARTESIAN_POINT('',(-37.,-31.5,6.));
#1352=CARTESIAN_POINT('',(-53.004,-31.5,6.));
#1353=CARTESIAN_POINT('',(-37.,-31.5,8.7));
#1354=CARTESIAN_POINT('',(-37.,-31.5,6.));
#1355=CARTESIAN_POINT('',(-19.,-31.5,8.7));
#1356=CARTESIAN_POINT('',(-45.,-31.5,8.7));
#1357=CARTESIAN_POINT('',(-19.,-31.5,16.7));
#1358=CARTESIAN_POINT('',(-19.,-31.5,8.7));
#1359=CARTESIAN_POINT('',(-45.,-31.5,16.7));
#1360=CARTESIAN_POINT('',(-45.,-31.5,16.7));
#1361=CARTESIAN_POINT('',(-45.,-31.5,6.));
#1362=CARTESIAN_POINT('',(-45.,-31.5,6.));
#1363=CARTESIAN_POINT('',(-53.004,-31.5,6.));
#1364=CARTESIAN_POINT('',(-53.004,-31.5,6.));
#1365=CARTESIAN_POINT('',(-53.004,-31.5,3.6));
#1366=CARTESIAN_POINT('',(-53.004,-31.5,3.6));
#1367=CARTESIAN_POINT('',(-52.867503848435,-31.5,3.6));
#1368=CARTESIAN_POINT('',(-53.004,-31.5,3.6));
#1369=CARTESIAN_POINT('',(-49.062496151565,-31.5,3.6));
#1370=CARTESIAN_POINT('',(-53.004,-31.5,3.6));
#1371=CARTESIAN_POINT('',(49.0490570259865,-31.5,3.6));
#1372=CARTESIAN_POINT('',(-53.004,-31.5,3.6));
#1373=CARTESIAN_POINT('',(52.7409429740135,-31.5,3.6));
#1374=CARTESIAN_POINT('',(-53.004,-31.5,3.6));
#1375=CARTESIAN_POINT('',(53.004,-31.5,3.6));
#1376=CARTESIAN_POINT('',(-53.004,-31.5,3.6));
#1377=CARTESIAN_POINT('',(53.004,-31.5,6.));
#1378=CARTESIAN_POINT('',(53.004,-31.5,3.6));
#1379=CARTESIAN_POINT('',(-53.004,-31.5,6.));
#1380=CARTESIAN_POINT('',(28.,-31.5,16.7));
#1381=CARTESIAN_POINT('Origin',(-19.,-31.5,8.7));
#1382=CARTESIAN_POINT('',(-19.,-21.,8.7));
#1383=CARTESIAN_POINT('',(-19.,-31.5,8.7));
#1384=CARTESIAN_POINT('',(-19.,-21.,16.7));
#1385=CARTESIAN_POINT('',(-19.,-21.,8.7));
#1386=CARTESIAN_POINT('',(-19.,-31.5,16.7));
#1387=CARTESIAN_POINT('Origin',(-32.,-26.25,8.7));
#1388=CARTESIAN_POINT('',(-37.,-21.,8.7));
#1389=CARTESIAN_POINT('',(-37.,-28.875,8.7));
#1390=CARTESIAN_POINT('',(-19.,-21.,8.7));
#1391=CARTESIAN_POINT('Origin',(-37.,-31.5,6.));
#1392=CARTESIAN_POINT('',(-37.,-21.,6.));
#1393=CARTESIAN_POINT('',(-37.,-28.875,6.));
#1394=CARTESIAN_POINT('',(-37.,-21.,6.));
#1395=CARTESIAN_POINT('Origin',(41.,-21.,6.));
#1396=CARTESIAN_POINT('',(41.,-21.,6.));
#1397=CARTESIAN_POINT('',(41.,-21.,6.));
#1398=CARTESIAN_POINT('',(41.,-23.625,6.));
#1399=CARTESIAN_POINT('Origin',(45.,-26.25,16.7));
#1400=CARTESIAN_POINT('',(49.,-21.,16.7));
#1401=CARTESIAN_POINT('Origin',(45.,-26.25,6.));
#1402=CARTESIAN_POINT('',(48.77,-27.9514095,6.));
#1403=CARTESIAN_POINT('Origin',(50.895,-27.9514095,6.));
#1404=CARTESIAN_POINT('Origin',(50.895,-27.9514095,6.));
#1405=CARTESIAN_POINT('Origin',(0.,-26.25,6.));
#1406=CARTESIAN_POINT('',(53.004,-27.6911327242399,6.));
#1407=CARTESIAN_POINT('Origin',(50.895,-27.9514095,6.));
#1408=CARTESIAN_POINT('',(53.004,-21.,6.));
#1409=CARTESIAN_POINT('',(53.004,-31.5,6.));
#1410=CARTESIAN_POINT('',(53.004,-21.,6.));
#1411=CARTESIAN_POINT('Origin',(0.,-26.25,6.));
#1412=CARTESIAN_POINT('',(53.004,-28.2116862757601,6.));
#1413=CARTESIAN_POINT('',(53.004,-31.5,6.));
#1414=CARTESIAN_POINT('Origin',(50.895,-27.9514095,6.));
#1415=CARTESIAN_POINT('Origin',(-45.,-21.,6.));
#1416=CARTESIAN_POINT('',(-45.,-21.,6.));
#1417=CARTESIAN_POINT('',(-45.,-21.,16.7));
#1418=CARTESIAN_POINT('',(-45.,-21.,6.));
#1419=CARTESIAN_POINT('',(-45.,-23.625,6.));
#1420=CARTESIAN_POINT('',(-45.,-21.,16.7));
#1421=CARTESIAN_POINT('Origin',(-41.,-26.25,16.7));
#1422=CARTESIAN_POINT('',(-19.,-21.,16.7));
#1423=CARTESIAN_POINT('Origin',(0.,-26.25,6.));
#1424=CARTESIAN_POINT('',(-53.004,-21.,6.));
#1425=CARTESIAN_POINT('',(53.004,-21.,6.));
#1426=CARTESIAN_POINT('',(-53.004,-27.3829915858296,6.));
#1427=CARTESIAN_POINT('',(-53.004,-21.,6.));
#1428=CARTESIAN_POINT('',(-53.004,-28.5798274141704,6.));
#1429=CARTESIAN_POINT('Origin',(-50.965,-27.9814095,6.));
#1430=CARTESIAN_POINT('',(-53.004,-21.,6.));
#1431=CARTESIAN_POINT('Origin',(-50.965,-27.9814095,0.));
#1432=CARTESIAN_POINT('',(-53.09,-27.9814095,0.));
#1433=CARTESIAN_POINT('Origin',(-50.965,-27.9814095,0.));
#1434=CARTESIAN_POINT('',(-53.09,-27.9814095,3.6));
#1435=CARTESIAN_POINT('',(-53.09,-27.9814095,0.));
#1436=CARTESIAN_POINT('',(-53.004,-28.5798274141704,3.6));
#1437=CARTESIAN_POINT('Origin',(-50.965,-27.9814095,3.6));
#1438=CARTESIAN_POINT('',(-53.004,-28.5798274141704,0.));
#1439=CARTESIAN_POINT('',(-53.004,-27.3829915858296,3.6));
#1440=CARTESIAN_POINT('',(-53.004,-27.3829915858296,0.));
#1441=CARTESIAN_POINT('Origin',(-50.965,-27.9814095,3.6));
#1442=CARTESIAN_POINT('Origin',(50.895,-27.9514095,0.));
#1443=CARTESIAN_POINT('',(48.77,-27.9514095,0.));
#1444=CARTESIAN_POINT('Origin',(50.895,-27.9514095,0.));
#1445=CARTESIAN_POINT('',(48.77,-27.9514095,0.));
#1446=CARTESIAN_POINT('',(53.004,-28.2116862757601,3.6));
#1447=CARTESIAN_POINT('',(53.004,-28.2116862757601,0.));
#1448=CARTESIAN_POINT('',(53.004,-27.6911327242399,3.6));
#1449=CARTESIAN_POINT('Origin',(50.895,-27.9514095,3.6));
#1450=CARTESIAN_POINT('',(53.004,-27.6911327242399,0.));
#1451=CARTESIAN_POINT('Origin',(-53.004,-21.,3.6));
#1452=CARTESIAN_POINT('',(-53.004,-31.4226998103342,3.6));
#1453=CARTESIAN_POINT('',(-53.004,-21.,3.6));
#1454=CARTESIAN_POINT('',(-53.004,-21.,3.6));
#1455=CARTESIAN_POINT('Origin',(0.,-26.25,6.));
#1456=CARTESIAN_POINT('',(53.004,-21.,6.));
#1457=CARTESIAN_POINT('Origin',(53.004,-31.5,3.6));
#1458=CARTESIAN_POINT('',(53.004,-24.5525686681869,3.6));
#1459=CARTESIAN_POINT('',(53.004,-31.5,3.6));
#1460=CARTESIAN_POINT('',(53.004,-21.,3.6));
#1461=CARTESIAN_POINT('',(53.004,-31.5,3.6));
#1462=CARTESIAN_POINT('',(53.004,-21.,3.6));
#1463=CARTESIAN_POINT('Origin',(50.895,-27.9514095,3.6));
#1464=CARTESIAN_POINT('',(53.004,-31.3502503318131,3.6));
#1465=CARTESIAN_POINT('',(53.004,-31.5,3.6));
#1466=CARTESIAN_POINT('Origin',(50.895,-27.9514095,3.6));
#1467=CARTESIAN_POINT('Origin',(50.895,-27.9514095,3.6));
#1468=CARTESIAN_POINT('Origin',(50.895,-27.9514095,3.6));
#1469=CARTESIAN_POINT('Origin',(50.895,-27.9514095,0.));
#1470=CARTESIAN_POINT('',(46.895,-27.9514095,3.6));
#1471=CARTESIAN_POINT('Origin',(50.895,-27.9514095,3.6));
#1472=CARTESIAN_POINT('Origin',(50.895,-27.9514095,3.6));
#1473=CARTESIAN_POINT('Origin',(50.895,-27.9514095,3.6));
#1474=CARTESIAN_POINT('',(46.895,-27.9514095,0.));
#1475=CARTESIAN_POINT('',(46.895,-27.9514095,0.));
#1476=CARTESIAN_POINT('Origin',(50.895,-27.9514095,0.));
#1477=CARTESIAN_POINT('Origin',(50.895,-27.9514095,0.));
#1478=CARTESIAN_POINT('Origin',(0.,-26.25,3.6));
#1479=CARTESIAN_POINT('',(-53.004,-24.5401191896658,3.6));
#1480=CARTESIAN_POINT('Origin',(-50.965,-27.9814095,3.6));
#1481=CARTESIAN_POINT('',(-53.004,-21.,3.6));
#1482=CARTESIAN_POINT('',(-53.004,-21.,3.6));
#1483=CARTESIAN_POINT('',(53.004,-21.,3.6));
#1484=CARTESIAN_POINT('Origin',(0.,-26.25,3.6));
#1485=CARTESIAN_POINT('',(53.004,-31.5,3.6));
#1486=CARTESIAN_POINT('Origin',(-50.965,-27.9814095,3.6));
#1487=CARTESIAN_POINT('Origin',(-50.965,-27.9814095,3.6));
#1488=CARTESIAN_POINT('Origin',(-50.965,-27.9814095,3.6));
#1489=CARTESIAN_POINT('',(-53.004,-21.,3.6));
#1490=CARTESIAN_POINT('',(-54.965,-27.9814095,3.6));
#1491=CARTESIAN_POINT('Origin',(-50.965,-27.9814095,3.6));
#1492=CARTESIAN_POINT('Origin',(-50.965,-27.9814095,3.6));
#1493=CARTESIAN_POINT('Origin',(-50.965,-27.9814095,0.));
#1494=CARTESIAN_POINT('Origin',(-50.965,-27.9814095,3.6));
#1495=CARTESIAN_POINT('',(-54.965,-27.9814095,0.));
#1496=CARTESIAN_POINT('',(-54.965,-27.9814095,0.));
#1497=CARTESIAN_POINT('Origin',(-50.965,-27.9814095,0.));
#1498=CARTESIAN_POINT('Origin',(-50.965,-27.9814095,0.));
#1499=CARTESIAN_POINT('Origin',(0.,-26.25,3.6));
#1500=CARTESIAN_POINT('Origin',(53.004,-21.,3.6));
#1501=CARTESIAN_POINT('',(-53.004,-21.,3.6));
#1502=CARTESIAN_POINT('Origin',(53.004,-31.5,3.6));
#1503=CARTESIAN_POINT('Origin',(-53.004,-21.,3.6));
#1504=CARTESIAN_POINT('Origin',(-25.,-26.25,6.4));
#1505=CARTESIAN_POINT('',(-28.,-26.25,6.4));
#1506=CARTESIAN_POINT('Origin',(-25.,-26.25,6.4));
#1507=CARTESIAN_POINT('',(-28.,-26.25,6.6));
#1508=CARTESIAN_POINT('',(-28.,-26.25,6.4));
#1509=CARTESIAN_POINT('Origin',(-25.,-26.25,6.6));
#1510=CARTESIAN_POINT('Origin',(-25.,-26.25,6.6));
#1511=CARTESIAN_POINT('',(-32.,-26.25,6.6));
#1512=CARTESIAN_POINT('Origin',(-25.,-26.25,6.6));
#1513=CARTESIAN_POINT('Origin',(-25.,-26.25,6.4));
#1514=CARTESIAN_POINT('',(-32.,-26.25,8.4));
#1515=CARTESIAN_POINT('Origin',(-25.,-26.25,8.4));
#1516=CARTESIAN_POINT('',(-32.,-26.25,6.4));
#1517=CARTESIAN_POINT('Origin',(-25.,-26.25,8.4));
#1518=CARTESIAN_POINT('Origin',(-25.,-26.25,6.4));
#1519=CARTESIAN_POINT('Origin',(34.,-26.25,6.4));
#1520=CARTESIAN_POINT('',(31.,-26.25,6.4));
#1521=CARTESIAN_POINT('Origin',(34.,-26.25,6.4));
#1522=CARTESIAN_POINT('',(31.,-26.25,6.6));
#1523=CARTESIAN_POINT('',(31.,-26.25,6.4));
#1524=CARTESIAN_POINT('Origin',(34.,-26.25,6.6));
#1525=CARTESIAN_POINT('Origin',(34.,-26.25,6.6));
#1526=CARTESIAN_POINT('',(27.,-26.25,6.6));
#1527=CARTESIAN_POINT('Origin',(34.,-26.25,6.6));
#1528=CARTESIAN_POINT('Origin',(34.,-26.25,6.4));
#1529=CARTESIAN_POINT('',(27.,-26.25,8.4));
#1530=CARTESIAN_POINT('Origin',(34.,-26.25,8.4));
#1531=CARTESIAN_POINT('',(27.,-26.25,6.4));
#1532=CARTESIAN_POINT('Origin',(34.,-26.25,8.4));
#1533=CARTESIAN_POINT('Origin',(34.,-26.25,6.4));
#1534=UNCERTAINTY_MEASURE_WITH_UNIT(LENGTH_MEASURE(0.01),#1538,
'DISTANCE_ACCURACY_VALUE',
'Maximum model space distance between geometric entities at asserted c
onnectivities');
#1535=UNCERTAINTY_MEASURE_WITH_UNIT(LENGTH_MEASURE(0.01),#1538,
'DISTANCE_ACCURACY_VALUE',
'Maximum model space distance between geometric entities at asserted c
onnectivities');
#1536=(
GEOMETRIC_REPRESENTATION_CONTEXT(3)
GLOBAL_UNCERTAINTY_ASSIGNED_CONTEXT((#1534))
GLOBAL_UNIT_ASSIGNED_CONTEXT((#1538,#1540,#1541))
REPRESENTATION_CONTEXT('','3D')
);
#1537=(
GEOMETRIC_REPRESENTATION_CONTEXT(3)
GLOBAL_UNCERTAINTY_ASSIGNED_CONTEXT((#1535))
GLOBAL_UNIT_ASSIGNED_CONTEXT((#1538,#1540,#1541))
REPRESENTATION_CONTEXT('','3D')
);
#1538=(
LENGTH_UNIT()
NAMED_UNIT(*)
SI_UNIT(.MILLI.,.METRE.)
);
#1539=(
LENGTH_UNIT()
NAMED_UNIT(*)
SI_UNIT($,.METRE.)
);
#1540=(
NAMED_UNIT(*)
PLANE_ANGLE_UNIT()
SI_UNIT($,.RADIAN.)
);
#1541=(
NAMED_UNIT(*)
SI_UNIT($,.STERADIAN.)
SOLID_ANGLE_UNIT()
);
#1542=SHAPE_DEFINITION_REPRESENTATION(#1543,#1544);
#1543=PRODUCT_DEFINITION_SHAPE('',$,#1546);
#1544=SHAPE_REPRESENTATION('',(#916),#1536);
#1545=PRODUCT_DEFINITION_CONTEXT('part definition',#1550,'design');
#1546=PRODUCT_DEFINITION('2026-09-30-17-17-38-186','card-holder',#1547,
#1545);
#1547=PRODUCT_DEFINITION_FORMATION('',$,#1552);
#1548=PRODUCT_RELATED_PRODUCT_CATEGORY('card-holder','card-holder',(#1552));
#1549=APPLICATION_PROTOCOL_DEFINITION('international standard',
'automotive_design',2009,#1550);
#1550=APPLICATION_CONTEXT(
'Core Data for Automotive Mechanical Design Process');
#1551=PRODUCT_CONTEXT('part definition',#1550,'mechanical');
#1552=PRODUCT('2026-09-30-17-17-38-186','card-holder',$,(#1551));
#1553=PRESENTATION_STYLE_ASSIGNMENT((#1554));
#1554=SURFACE_STYLE_USAGE(.BOTH.,#1555);
#1555=SURFACE_SIDE_STYLE('',(#1556));
#1556=SURFACE_STYLE_FILL_AREA(#1557);
#1557=FILL_AREA_STYLE('Steel - Satin',(#1558));
#1558=FILL_AREA_STYLE_COLOUR('Steel - Satin',#1559);
#1559=COLOUR_RGB('Steel - Satin',0.627450980392157,0.627450980392157,0.627450980392157);
ENDSEC;
END-ISO-10303-21;
